<svg id="图层_1" data-name="图层 1" xmlns="http://www.w3.org/2000/svg" viewBox="0 0 240 240"><path d="M57.6,86.34c9.17-2.41,18.3-4.76,23.89-13.07,4.05-6,8.14-12.25,10.73-19,2.88-7.48,8.84-12.67,12.4-19.55.79-1.53,1.92-2.75,2.37-4.64.78-3.32,5.49-4.27,5.54-8.36,0-.51,1.38-.42,1.62.19,1.28,3.34,5.21,4.59,6.31,8,1.28,4,3.63,7.44,5.82,10.93,7.16,11.42,5,22.32-1.64,33-2,3.24-4.11,6.44-6.4,9.49-1.31,1.75-2.48,4.07-5.48,3.67a21.49,21.49,0,0,1,12.3,4.78c1.67,1.34,3.07,3-.93,3.94,10.36,3.41,7.42,1,8.39,11.46.12,1.25-.49.64,1.27,8.17.44,1.9,3.66,4.09,2.08,5.63s-3.7.07-5.54-.62c-11.39-4.3-18.75-4.56-29.18-10.7-.84-.5-1.57-1.22-2.86-.85-.3,1.93,1.38,2.36,2.51,3.06,11,6.81,22.39,13,33.94,18.91,1.72.88,3.4,1.46,5.15.25,9.46-6.54,20.49-10.29,30-16.78a23.69,23.69,0,0,0,2.76-2.11c.75-.69,1.41-1.72.78-2.65-.74-1.09-1.76-.28-2.62.15-6.08,3-12.15,6.12-18.24,9.16-5.73,2.87-6,2.82-9-3.06-7.31-14.56-7.08-29.42-1.09-44.22C148.11,57.63,156.42,45.87,171,40c11.43-4.63,22.93-4.15,34.5-.41,2.71.87,3.25,2.42,2.5,4.84-6.59,21.18-11.53,42.88-20.1,63.43A28.07,28.07,0,0,1,178.79,120c-9.38,7.08-17.29,16-27.39,22.24-2.51,1.55-5.57,2.26-7.49,4.77-3.19,4.17.06,8.48-.2,12.73-.1,1.61,1.83.87,2.8.43,15.16-6.86,30.19-14,43-24.8,3.76-3.14,7.64-3,11.68-2.26a4.08,4.08,0,0,1,2.26,7.17c-3.29,3.29-4.43,7.13-5.21,11.5-2,11.18-8.73,19.94-15.43,28.66-1.28,1.66-2.6,3.29-3.9,4.93,1.18.88,2-1.07,3,.44a89.37,89.37,0,0,1-20.34,14.06c-1.3.67-2.9,1.7-4.07.24a3.7,3.7,0,0,1,.26-5,52,52,0,0,1,4.78-4.36,79.75,79.75,0,0,0,14.84-16.14c-1.94,2.05-3.83,4.15-5.82,6.13A80.56,80.56,0,0,1,157.76,192c-3.57,2.25-5.82,3.69-3,8.59,2.54,4.47-.93,9.48-7,11.75-6.77,2.54-14,2.79-21,3.76-11.18,1.52-22.4,2.93-33.72,2.31a157.65,157.65,0,0,1-25-3.59,20.43,20.43,0,0,1-8.65-3.89c6.62.06,11.78,2.8,17.53,1.91-1.23-2-3-1.83-4.54-2.2a58.78,58.78,0,0,1-13.62-4.72c-9.53-5-11.19-12.23-4.68-20.81a17,17,0,0,1,6.36-5.38C55.8,188.41,57,191.84,65.27,196a44.11,44.11,0,0,0,4.12,1.78c6.64,2.48,7.78,2.1,11.93-3.87,1.8-2.59,3.35-5.4,5.44-7.73,8.41-9.32,10.31-20.36,9.08-32.36-.84-8.22-6.15-14.13-10.46-20.53-1.11-1.65-3.22-1.21-5.07-.54-9.15,3.33-18.42,6.36-27.47,9.95a29.2,29.2,0,0,1-21.17.6c.21-.32.33-.75.55-.81,16.26-4.5,22-18.57,28.48-31.74C65.52,100.86,71,92.14,82.24,88.82c2.06-.61,4.27-1.71,5.27-3.58,1.64-3.07,3.54-4.27,7.11-3.53,2.07.43,5.51-5.09,4.71-7.08a1.9,1.9,0,0,0-1-1c-1-.33-1.47.25-1.84,1.12a9.56,9.56,0,0,1-4.83,4.81C77.11,86.92,65.39,97.89,53.92,109.2a17.61,17.61,0,0,1-2.11,1.33c3.33-12.7,12.54-19,23.1-26.13C68.32,86.51,63.07,88,57.6,86.34ZM192.34,151.8c-1.82-.17-2.69,1-3.76,1.7a105.33,105.33,0,0,1-38.16,15.25c-5.22,1-6.81,2.91-5.73,8.18.3,1.45,1.06,2.81,1.36,4.27.77,3.86,2.07,4.54,6,2.55,14.63-7.49,26.65-18.46,39.39-28.49A3.1,3.1,0,0,0,192.34,151.8Zm-4.61-60.27c-.79-1.94-1.79-4.36-2.75-6.81-1.09-2.79-2.59-2.56-4.35-.64-.89,1-1.8,1.93-2.64,3-2.48,3-1.19,4.33,1.95,5.69,1.78.77,3.63-1,5,.68.48.58.56,1.74,1.67,1.28S187.67,93.11,187.73,91.53Z"/></svg>