<svg id="图层_1" data-name="图层 1" xmlns="http://www.w3.org/2000/svg" viewBox="0 0 256 256"><path d="M208.39,163.79c-2.12,1.52-4.12,2.52-7.55.34a20.12,20.12,0,0,0-3.71-1.27,4.61,4.61,0,0,0-3.6.71h-2.15a21,21,0,0,1-8-1.47,63,63,0,0,0-.83,10.32,65.29,65.29,0,0,0,.84,10.32c2.88,17.55,16.88,33.55,34.88,38.55-11.2-5.6-19.2-17-19.39-29.48a29.12,29.12,0,0,1,.3-4.73c.09-1.79,1.09-2.79,1.09-4.79,4,9,11,16,19.34,21.94,1.19.74,2.41,1.43,3.66,2.06-1-1.25-1.94-2.54-2.85-3.84-8.15-11.16-13.15-25.16-11.68-39C208.63,163.56,208.51,163.68,208.39,163.79Z"/><path d="M220,184.49c-4.77-10.18,1.23-20.18-1.42-30.32-.34-1-.74-2-1.16-3s-.9-2-1.41-3a33,33,0,0,0-3.73-5.62,49.09,49.09,0,0,0-7.72-6.72,100.38,100.38,0,0,0-8.67-5.46l-.23-.13c-.61,1-1.23,1.92-1.85,2.88h0a24.38,24.38,0,0,1,6.39,4.29,31.62,31.62,0,0,1,5.31,6.48c.73,2.41,2.73,5.41,2.72,7.41a39.4,39.4,0,0,0,.66,4.52c.31,1.51.71,3,1.15,4.53,3.2,8.95,3.2,18.95,10.65,25.45A3.78,3.78,0,0,0,220,184.49Z"/><path d="M179.35,163.5a8.32,8.32,0,0,0-.13,1.53,6,6,0,0,1-5.39,8.63,6.79,6.79,0,0,1-3.58-1.1,31.44,31.44,0,0,1-5.87-4.77,31.49,31.49,0,0,1-2.36,2.67,28.38,28.38,0,0,1,5.95,9.68,39,39,0,0,1,1.88,6.51c2.84-2.35,5.68-4.69,8.62-6.91a3.52,3.52,0,0,0,1.51-3.33,72.1,72.1,0,0,1,.91-15.53l-.8-.5A21.72,21.72,0,0,0,179.35,163.5Z"/><path d="M175.21,152.93l.33.28.23.18.32.25.25.16.32.22.26.15.33.19.27.14.33.17.28.12.33.15.29.1.34.13.3.09.35.1.3.08.35.08.32.07.36.06.32,0,.36.05.34,0,.36,0,.34,0,.37,0h2.51l2.22,0h.56l2.2.05a12.35,12.35,0,0,1,4,.65l.13,0,0,0,.09,0,.1,0,.05,0,.12.05h0l.1,0h0l.08,0h0l.12,0h.31l.14,0h0l.11,0,0,0a.57.57,0,0,0,.13-.1c.66-.6.08-1.19-.12-1.78-.1-.29-.17-.58-.26-.86a32.86,32.86,0,0,0-3.55-8.59c-3.24-5.16-7.71-8.67-14-9.29a4.29,4.29,0,0,1-2.11-.5c.15-.2.2-.31.27-.35a3.83,3.83,0,0,1,.7-.29,8.22,8.22,0,0,0,4.91-4c2.12-3.22,4.11-6.52,6.19-9.77.95-1.49.91-1.76-.84-2.26l-.7-.2-.23-.06-.48-.13-.27-.07-.44-.11-.28-.07-.43-.1-.29-.07-.42-.1-.29-.06-.44-.09-.28,0-.45-.09-.27,0-.51-.08-.2,0c-.48-.07-1-.14-1.45-.19l-.21,0-.51,0-.27,0-.45,0-.29,0-.44,0-.3,0h-1c-.37,0-.73,0-1.1,0a18.6,18.6,0,0,0-11.78,4.29c-3,2.58-4.53,5.93-5.65,9.57-.67,2.16-.79,4.25.64,6.19.35.48.19.91,0,1.4a24.92,24.92,0,0,0-2,4.88,16.07,16.07,0,0,0-.29,5.69c.07.53.17,1.06.29,1.58.05.17.09.34.14.51.1.34.21.68.33,1a15.87,15.87,0,0,0,.61,1.48l.24.48c.17.32.34.63.53.94a19.9,19.9,0,0,0,1.56,2.27c.24.29.48.59.73.87.37.44.77.86,1.18,1.28a28.6,28.6,0,0,0,5.47,4.7l.17.1.06,0a.61.61,0,0,0,.14.07l0,0a1.52,1.52,0,0,0,.2.06h0a.63.63,0,0,0,.19,0h.13a.37.37,0,0,0,.14,0h0l.14-.08c.47-.33.3-.81.12-1.23a6.82,6.82,0,0,1-.16-3.72,31.5,31.5,0,0,1,2.23-7.33c.07-.16.12-.3.18-.44l0,0c0-.14.11-.26.16-.38l0-.05c.05-.11.09-.21.14-.31l0,0,.13-.26,0,0a2,2,0,0,1,.12-.21l0,0,.12-.16h0a.58.58,0,0,1,.13-.11h0l.14-.06h.2l.09,0,.08,0,.09.06.09.06.11.09.09.07.13.12.09.1.15.16.11.1.19.22.09.1.32.37c.16.19.33.37.5.55s.12.11.17.17l.36.34Z"/><path d="M181.61,67.4c.79,2.48,1.12,4.69-2,7.27a20.29,20.29,0,0,0-2.36,3.14,4.59,4.59,0,0,0-.43,3.64c-.19.58-.38,1.16-.55,1.73,0,.11-.07.22-.11.33a21.11,21.11,0,0,1-3.86,7.16,63.45,63.45,0,0,0,9.56,4A65.59,65.59,0,0,0,191.93,97c17.58,2.69,37.12-5.69,47.44-21.26-8.79,8.92-22.07,13-34,9.34a31.59,31.59,0,0,1-4.41-1.75c-1.67-.64-2.31-1.9-4.22-2.52,9.8-1,18.62-5.52,26.85-11.62,1.07-.9,2.11-1.84,3.09-2.84-1.5.56-3,1.06-4.53,1.52-13.14,4.31-28,4.74-40.73-1A3.74,3.74,0,0,1,181.61,67.4Z"/><path d="M204.9,62.71c-11.16,1.39-18.82-7.41-29.28-8-1.08,0-2.16.08-3.25.18s-2.16.23-3.24.42a32.27,32.27,0,0,0-6.5,1.82,47.93,47.93,0,0,0-8.78,5.26A97.89,97.89,0,0,0,146,68.91l-.19.18c.72.88,1.45,1.76,2.16,2.65h0A24.65,24.65,0,0,1,154,67a31.85,31.85,0,0,1,7.81-3c2.51.06,6-.92,7.88-.3a37.26,37.26,0,0,0,4.51.78c1.53.17,3.09.26,4.67.3,9.49-.27,19,2.82,27.49-2.26A3.69,3.69,0,0,0,204.9,62.71Z"/><path d="M172.36,94.92a8.84,8.84,0,0,0,1.42.6,6,6,0,0,1,6.55,4.15,5.92,5.92,0,0,1,0,3.63,6.82,6.82,0,0,1-2.15,3.08,31.07,31.07,0,0,1-6.35,4.1,33.83,33.83,0,0,1,1.81,3.07,28.65,28.65,0,0,1,11.05-2.67,38.75,38.75,0,0,1,6.77.23c-1.36-3.43-2.71-6.86-3.92-10.34a3.51,3.51,0,0,0-2.69-2.46,72.13,72.13,0,0,1-14.49-5.66c-.24.21-.48.41-.73.6A21.57,21.57,0,0,0,172.36,94.92Z"/><path d="M161,95.59l.37-.22.24-.17L162,95l.23-.18.31-.24.22-.2.29-.25.21-.22a3.19,3.19,0,0,0,.26-.26l.21-.23.23-.27.2-.24.22-.29.18-.26a3,3,0,0,0,.2-.29c.06-.09.12-.18.17-.27a3.21,3.21,0,0,0,.19-.31l.16-.28c.06-.1.11-.21.17-.32l.15-.29.15-.33a2.92,2.92,0,0,0,.14-.31c0-.11.1-.22.14-.33s.09-.22.13-.32.09-.23.13-.35.08-.22.11-.33.11-.31.16-.47h0c.16-.52.33-1,.5-1.57h0c.23-.71.47-1.41.71-2.11l.18-.53c.24-.69.48-1.38.73-2.07a12.54,12.54,0,0,1,1.85-3.6l.09-.11,0,0,.06-.07.08-.09,0,0a.76.76,0,0,1,.08-.11l0,0,.06-.08,0,0,.05-.07,0,0s0-.07.05-.1h0s0-.08,0-.12v0l0-.11v0a.66.66,0,0,0,0-.14v0s0-.09,0-.13v0a1.66,1.66,0,0,0-.06-.16c-.36-.81-1.11-.44-1.73-.44-.3,0-.6,0-.9,0a32.6,32.6,0,0,0-9.26.73c-5.91,1.49-10.63,4.65-13.17,10.48a4.24,4.24,0,0,1-1.14,1.84c-.14-.2-.23-.28-.24-.37a3.08,3.08,0,0,1-.06-.74,8.27,8.27,0,0,0-2.26-5.9c-2.41-3-4.93-5.93-7.38-8.91-1.12-1.36-1.39-1.41-2.41.1-.14.2-.27.4-.4.61,0,.06-.09.13-.14.2s-.17.27-.26.41l-.15.23-.25.39-.15.25-.23.37-.15.26c-.08.12-.15.25-.22.37l-.16.26-.21.38-.14.25-.23.41-.12.23-.24.46-.1.19c-.22.43-.43.87-.63,1.31l-.09.2c-.07.15-.14.31-.2.46s-.07.17-.11.25-.12.28-.17.42-.07.19-.11.28L128,82l-.11.29c0,.13-.09.27-.14.4s-.07.19-.1.29l-.09.28c-.11.35-.22.7-.32,1.06a18.68,18.68,0,0,0,.45,12.53c1.53,3.63,4.24,6.14,7.36,8.33,1.84,1.3,3.79,2.07,6.08,1.3.56-.18.92.11,1.32.47a24.16,24.16,0,0,0,4,3.38,15.69,15.69,0,0,0,5.32,2,14.43,14.43,0,0,0,1.59.21l.54,0c.35,0,.7,0,1.06,0,.53,0,1.06-.06,1.59-.13l.53-.08c.35-.06.71-.13,1.06-.21a20.35,20.35,0,0,0,2.64-.79l1.06-.42c.52-.22,1-.46,1.57-.73a28.27,28.27,0,0,0,6.17-3.75.86.86,0,0,0,.14-.13l0,0,.11-.11,0,0A1.83,1.83,0,0,0,170,106h0a.89.89,0,0,0,.08-.17.53.53,0,0,0,0-.12h0a.76.76,0,0,0,0-.15v0l0-.16c-.17-.54-.68-.53-1.14-.5a6.83,6.83,0,0,1-3.58-1,32.12,32.12,0,0,1-6.29-4.39l-.36-.31,0,0-.31-.26,0,0-.26-.23,0,0a2.08,2.08,0,0,1-.21-.21l0,0-.16-.18,0,0-.12-.17h0a.71.71,0,0,1-.07-.16h0a.39.39,0,0,1,0-.15h0a.29.29,0,0,1,0-.09s0,0,0,0a.21.21,0,0,1,0-.06.35.35,0,0,1,.05-.08l0-.06.09-.08.08-.06.11-.08.11-.06.15-.08.12-.06.2-.1.13-.06.27-.12.12,0,.44-.19.69-.31.21-.12c.15-.07.3-.14.44-.22Z"/><path d="M81.25,63.63c2.61,0,4.81.39,6.31,4.16A18.87,18.87,0,0,0,89.81,71a4.57,4.57,0,0,0,3.33,1.54c.49.36,1,.71,1.47,1l.28.21a21.08,21.08,0,0,1,5.62,5.88,62.66,62.66,0,0,0,6.73-7.86A66,66,0,0,0,112.63,63c8-15.89,6.06-37.06-5.56-51.68,5.77,11.11,5.56,25-1.64,35.24a29.78,29.78,0,0,1-3,3.65c-1.12,1.4-2.52,1.62-3.7,3.24C100.76,43.8,99.21,34,96,24.3c-.52-1.29-1.1-2.57-1.75-3.81.08,1.6.09,3.19,0,4.77,0,13.83-4.15,28.1-13.49,38.45Z"/><path d="M84,40c-2.12,11-12.86,15.61-16.68,25.36q-.48,1.56-.84,3.15c-.24,1.06-.44,2.13-.6,3.22a32.61,32.61,0,0,0-.28,6.74,48.71,48.71,0,0,0,2.29,10A98,98,0,0,0,71.69,98l.11.24Q73.39,97.6,75,97h0a24.65,24.65,0,0,1-2.65-7.23,31.68,31.68,0,0,1-.49-8.36c.83-2.37,1-6,2.15-7.59a38,38,0,0,0,2.13-4c.64-1.4,1.21-2.86,1.74-4.34,2.67-9.12,8.54-17.21,6.34-26.85A3.85,3.85,0,0,0,84,40Z"/><path d="M104.57,80.94a8.28,8.28,0,0,0,1-1.17A6,6,0,0,1,115,76a6.86,6.86,0,0,1,2.25,3,31,31,0,0,1,1.95,7.31,31.63,31.63,0,0,1,3.47-.78,28.53,28.53,0,0,1,.88-11.33,37.93,37.93,0,0,1,2.31-6.37c-3.68.23-7.36.46-11,.53a3.52,3.52,0,0,0-3.18,1.8,72.52,72.52,0,0,1-9.86,12c.12.29.24.58.35.88A22.25,22.25,0,0,0,104.57,80.94Z"/><path d="M101.71,91.92c0-.14-.06-.28-.1-.42s-.06-.19-.08-.28l-.12-.39-.1-.28-.13-.36-.12-.28c0-.12-.1-.23-.16-.35l-.13-.27c-.06-.11-.11-.22-.17-.32l-.16-.27-.18-.31-.17-.26-.21-.3-.18-.25-.22-.29-.21-.24L99,86.78l-.22-.24a3.07,3.07,0,0,0-.25-.26l-.23-.23-.27-.25-.25-.23-.27-.24-.27-.22L97,84.88l-.28-.21c-.13-.1-.26-.2-.4-.29h0c-.45-.31-.89-.63-1.34-1h0c-.6-.43-1.2-.88-1.79-1.32l-.45-.34c-.58-.44-1.17-.88-1.74-1.33a12.61,12.61,0,0,1-2.86-2.88l-.07-.11,0,0,0-.09-.06-.09,0,0-.07-.11,0,0L87.75,77l0,0,0-.07,0,0a.6.6,0,0,0-.08-.08h0l-.09-.08,0,0-.1-.06h0l-.13,0h0l-.13,0h-.21c-.88.1-.76.92-1,1.52-.09.28-.19.56-.3.85a33,33,0,0,0-2.17,9C83,94,84.53,99.41,89.29,103.63a4.25,4.25,0,0,1,1.4,1.65,1.76,1.76,0,0,1-.42.12,3,3,0,0,1-.73-.18c-2.16-.89-4.27-.44-6.31.33-3.61,1.37-7.16,2.86-10.76,4.27-1.64.64-1.76.89-.64,2.32l.45.57.15.19.31.38.18.22.29.34.18.23.29.33c.06.08.13.15.2.23l.28.32c.07.08.14.15.2.23l.3.32.19.21.32.34c.06.06.12.13.19.19l.36.37.15.15c.34.34.69.68,1,1l.16.14c.12.12.25.23.38.34l.2.18.35.29a2.11,2.11,0,0,0,.23.19l.33.27.24.19.34.26.25.18.24.18.9.62a18.57,18.57,0,0,0,12.06,3.45c3.92-.33,7.15-2.13,10.2-4.42,1.8-1.35,3.13-3,3.12-5.38,0-.6.38-.85.85-1.11a24.87,24.87,0,0,0,4.46-2.79,16,16,0,0,0,3.58-4.43,14.71,14.71,0,0,0,.69-1.45c.07-.17.13-.33.19-.5.12-.33.23-.67.33-1,.15-.51.27-1,.37-1.56l.09-.52c0-.36.1-.72.13-1.08a20.93,20.93,0,0,0,.06-2.75c0-.38,0-.75-.07-1.13,0-.57-.12-1.15-.2-1.73a28.5,28.5,0,0,0-1.67-7,1.42,1.42,0,0,0-.08-.18s0,0,0-.06l-.08-.14,0,0a1,1,0,0,0-.11-.17h0a.8.8,0,0,0-.13-.13l-.11-.07h0a.59.59,0,0,0-.14-.06h0l-.16,0c-.57,0-.71.48-.82.93a7,7,0,0,1-2,3.1,32,32,0,0,1-6.12,4.62l-.4.25-.05,0-.34.2-.05,0a2.28,2.28,0,0,1-.3.17l0,0-.26.13,0,0-.22.1h0l-.19.06h0l-.17,0h0l-.15,0h0l-.08,0s0,0,0,0,0,0,0,0l-.06-.08,0-.07,0-.1a1,1,0,0,1,0-.1.93.93,0,0,0,0-.13.5.5,0,0,0,0-.12s0-.11,0-.17a.59.59,0,0,0,0-.13l0-.22a.77.77,0,0,0,0-.15l0-.29s0-.08,0-.13,0-.31,0-.48,0-.51-.09-.75a2,2,0,0,0,0-.24c0-.16,0-.32-.08-.48Z"/><path d="M46.43,157.65c.83-2.47,1.86-4.45,5.9-4.71a19.58,19.58,0,0,0,3.75-1.15,4.57,4.57,0,0,0,2.5-2.69L60,148l.28-.21a21.25,21.25,0,0,1,7.34-3.52,63.35,63.35,0,0,0-5.4-8.83,66,66,0,0,0-6.74-7.86c-12.64-12.5-33.38-17.21-50.88-10.68,12.36-2.05,25.51,2.44,33,12.45a30.89,30.89,0,0,1,2.55,4c1,1.51.75,2.9,1.93,4.52-8.53-4.93-18.3-6.48-28.55-6.38-1.4.1-2.79.26-4.17.49,1.55.42,3.06.9,4.56,1.42,13.16,4.24,25.43,12.63,32.4,24.72C46.38,158,46.4,157.82,46.43,157.65Z"/><path d="M24.84,147.76c9.85,5.43,10.87,17.05,19,23.7q1.32.93,2.73,1.77c.93.56,1.89,1.08,2.87,1.56a32.25,32.25,0,0,0,6.33,2.35,48.09,48.09,0,0,0,10.2.91,100,100,0,0,0,10.21-.68l.27,0c-.07-1.14-.14-2.28-.2-3.42h0a24.67,24.67,0,0,1-7.69.29,31.68,31.68,0,0,1-8.1-2.13c-2-1.52-5.39-2.77-6.56-4.39a36.39,36.39,0,0,0-3.19-3.27c-1.14-1-2.35-2-3.6-3-7.84-5.36-13.71-13.45-23.57-14.33A4.06,4.06,0,0,0,24.84,147.76Z"/><path d="M70.09,140.82a8.27,8.27,0,0,0-.79-1.31,6,6,0,0,1-2.86-7.21,5.93,5.93,0,0,1,2.15-2.94,6.9,6.9,0,0,1,3.54-1.22,31.42,31.42,0,0,1,7.55.41A32.54,32.54,0,0,1,80,125a28.61,28.61,0,0,1-10.51-4.33,40.11,40.11,0,0,1-5.34-4.16c-.92,3.57-1.84,7.14-2.91,10.66a3.53,3.53,0,0,0,.74,3.58,72.47,72.47,0,0,1,8.39,13.09l.94-.06A20.31,20.31,0,0,0,70.09,140.82Z"/><path d="M79.66,146.94l-.43,0H77.84l-.3,0-.37,0-.3,0-.37.06-.3.07-.35.08-.3.08-.35.1-.29.1-.34.12-.3.12-.33.14-.29.13-.33.16-.29.15-.32.17-.29.17-.32.19-.28.19-.32.2-.28.2-.41.29h0c-.44.33-.88.66-1.33,1h0c-.6.44-1.2.87-1.81,1.29l-.46.33-1.81,1.24a12.29,12.29,0,0,1-3.61,1.83l-.13,0,0,0-.1,0-.11,0h0l-.13,0h0l-.1,0h0l-.08,0h0l-.1,0h0l-.1.06,0,0-.08.07,0,0a.44.44,0,0,0-.08.11v0a.24.24,0,0,0-.06.11l0,0a.75.75,0,0,0,0,.16c-.18.88.64,1,1.15,1.37l.71.55a33,33,0,0,0,7.92,4.86c5.66,2.27,11.33,2.48,16.82-.74a4.31,4.31,0,0,1,2-.83,1.67,1.67,0,0,1,0,.45,2.89,2.89,0,0,1-.39.63,8.26,8.26,0,0,0-1.64,6.11c.18,3.85.51,7.69.74,11.54.1,1.76.29,2,2,1.34l.69-.26.22-.08.46-.18.26-.1.42-.17.27-.11.4-.16.28-.12.4-.17.27-.13.4-.18.27-.12.41-.19.25-.12.46-.23.19-.1c.43-.22.86-.45,1.28-.69l.19-.1.44-.26.23-.14.38-.24.25-.16.37-.23a2.2,2.2,0,0,1,.25-.17L99,177l.25-.18.24-.18c.29-.21.59-.43.87-.66a18.67,18.67,0,0,0,7-10.4c.89-3.84.18-7.46-1-11.07-.73-2.13-1.86-3.9-4.16-4.63-.57-.18-.69-.62-.79-1.15a24.27,24.27,0,0,0-1.28-5.1,15.85,15.85,0,0,0-3.1-4.78,15.34,15.34,0,0,0-1.17-1.11l-.41-.33c-.28-.22-.57-.43-.86-.63-.44-.3-.9-.57-1.37-.83l-.47-.25c-.32-.16-.65-.31-1-.45a21.58,21.58,0,0,0-2.6-.92l-1.1-.28q-.84-.19-1.71-.33a27.9,27.9,0,0,0-7.19-.59l-.2,0h-.06l-.15,0H78.7l-.2.06h0a.56.56,0,0,0-.17.09l-.1.07h0a.48.48,0,0,0-.09.11l0,0a.77.77,0,0,0-.07.16c-.18.53.23.82.63,1.06A6.85,6.85,0,0,1,81,137.66a31.42,31.42,0,0,1,2.5,7.25l.12.46v0l.09.4v.05c0,.12,0,.23.07.34v.05c0,.1,0,.19,0,.28v0a2.29,2.29,0,0,1,0,.25v.23h0a.74.74,0,0,1,0,.17h0a.36.36,0,0,1-.08.12v0l-.06.06h0l-.06,0-.09,0-.08,0H83l-.18,0-.13,0-.22,0-.14,0-.28-.06-.14,0-.47-.11c-.25-.06-.49-.11-.74-.15l-.23,0a4.44,4.44,0,0,0-.49-.07A2.66,2.66,0,0,0,79.66,146.94Z"/><path d="M125.31,219.41c-2.1-1.54-3.67-3.14-2.66-7.06a20.72,20.72,0,0,0,.07-3.92,4.59,4.59,0,0,0-1.79-3.21c-.19-.58-.38-1.16-.57-1.71,0-.11-.08-.22-.11-.33a21,21,0,0,1-1.08-8.07,63.13,63.13,0,0,0-10.07,2.41,65.64,65.64,0,0,0-9.56,4c-15.79,8.16-26.68,26.42-25.88,45.08,1.87-12.38,10.2-23.5,22-27.55a30.08,30.08,0,0,1,4.6-1.17c1.73-.47,3,.17,4.89-.45C97.87,224,93.37,232.82,90.3,242.59c-.34,1.36-.62,2.73-.83,4.11.88-1.33,1.81-2.62,2.77-3.89,8.1-11.2,19.87-20.28,33.51-23.17A3.68,3.68,0,0,1,125.31,219.41Z"/><path d="M109.22,236.89c8.22-7.68,19.58-5.07,28.41-10.71.87-.65,1.71-1.34,2.52-2.05s1.62-1.47,2.38-2.26a31.91,31.91,0,0,0,4.19-5.28,48.33,48.33,0,0,0,4-9.42,98.13,98.13,0,0,0,2.51-9.93l.06-.26c-1.11-.28-2.21-.57-3.31-.87h0a24.5,24.5,0,0,1-2.1,7.41,31.78,31.78,0,0,1-4.52,7.05c-2.07,1.43-4.3,4.26-6.21,4.88a38.9,38.9,0,0,0-4.1,2c-1.34.76-2.65,1.61-3.95,2.5-7.52,5.8-17,8.89-20.91,18C108.58,237.77,108.9,237.26,109.22,236.89Z"/><path d="M116.61,191.71a7.94,7.94,0,0,0-1.49.35,6,6,0,0,1-7.74.49,5.93,5.93,0,0,1-2.13-3,6.82,6.82,0,0,1-.07-3.75,30.88,30.88,0,0,1,2.73-7,34,34,0,0,1-3.27-1.42A28.62,28.62,0,0,1,97.27,186a38.55,38.55,0,0,1-5.61,3.8c3.11,2,6.22,3.95,9.24,6.06a3.5,3.5,0,0,0,3.63.4,73.13,73.13,0,0,1,15-3.93c.07-.31.15-.61.23-.91A21.15,21.15,0,0,0,116.61,191.71Z"/><path d="M125.39,184.5c-.06.14-.12.27-.17.4s-.07.19-.1.28-.09.25-.13.38l-.09.29-.1.37c0,.1,0,.2-.07.3s0,.24-.08.36,0,.21-.05.31,0,.24,0,.36a3,3,0,0,0,0,.31c0,.12,0,.24,0,.36s0,.2,0,.31,0,.24,0,.36v.31c0,.12,0,.24,0,.36s0,.21,0,.32l0,.36c0,.1,0,.21,0,.32s0,.24,0,.36,0,.21,0,.32,0,.24.07.36,0,.22.07.33,0,.23.08.35l.09.33c0,.12.06.24.1.36s.06.23.1.34.09.31.15.47h0c.18.52.35,1.05.52,1.57h0c.23.71.45,1.42.67,2.12,0,.18.11.36.16.54q.33,1.05.63,2.1a12.36,12.36,0,0,1,.62,4s0,.09,0,.13v.31s0,.09,0,.13V205s0,.08,0,.11v0l0,.12,0,0a.42.42,0,0,0,0,.1v0l.08.12h0a.28.28,0,0,0,.09.1l0,0a.5.5,0,0,0,.14.1c.77.44,1.16-.29,1.66-.67.24-.18.49-.34.74-.51a32.44,32.44,0,0,0,7.06-6c3.91-4.68,5.87-10,4.5-16.22a4.26,4.26,0,0,1-.17-2.16c.24.09.35.09.42.16a3.29,3.29,0,0,1,.48.57c1.22,2,3.19,2.87,5.3,3.44,3.72,1,7.47,1.9,11.21,2.87,1.7.44,1.95.32,1.89-1.5l0-.73c0-.08,0-.16,0-.23s0-.33,0-.5,0-.18,0-.27l0-.46c0-.09,0-.19,0-.29l0-.44,0-.29c0-.15,0-.29,0-.44l0-.29c0-.15,0-.3-.05-.44l0-.29-.06-.46c0-.08,0-.17,0-.26s-.05-.34-.07-.51a1.55,1.55,0,0,0,0-.21c-.07-.48-.16-1-.25-1.43,0-.08,0-.15,0-.22s-.07-.33-.11-.49l-.06-.27c0-.14-.07-.29-.11-.44s-.05-.19-.07-.28-.07-.28-.11-.42l-.09-.29-.12-.41-.09-.3-.09-.28c-.12-.35-.24-.69-.37-1a18.55,18.55,0,0,0-7.72-9.87c-3.38-2-7-2.48-10.85-2.42-2.26,0-4.29.56-5.69,2.52-.34.49-.81.46-1.34.4a24.94,24.94,0,0,0-5.25-.37,16,16,0,0,0-5.5,1.48,13.66,13.66,0,0,0-1.41.77l-.45.29-.86.62c-.42.33-.82.68-1.21,1-.13.12-.26.24-.38.37s-.5.52-.74.79a20.37,20.37,0,0,0-1.67,2.19c-.21.32-.41.63-.61,1-.29.49-.58,1-.85,1.52a28.79,28.79,0,0,0-2.78,6.65c0,.07,0,.13,0,.2s0,0,0,.06a.77.77,0,0,0,0,.15.2.2,0,0,0,0,.07,1.41,1.41,0,0,0,0,.2h0a1,1,0,0,0,.07.3h0a.6.6,0,0,0,.09.13l0,0,.12.11c.46.34.86,0,1.21-.27a6.93,6.93,0,0,1,3.48-1.3,31.74,31.74,0,0,1,7.67-.14l.47,0h0l.4,0h.06l.34,0H126l.29,0h0l.23,0h0l.2.07h0l.15.09h0l.1.11h0a.32.32,0,0,1,0,.09,0,0,0,0,1,0,0s0,0,0,.07V181a.25.25,0,0,1,0,.08.43.43,0,0,1,0,.11l0,.1a1.12,1.12,0,0,1,0,.13s0,.07,0,.11l-.08.16-.06.12-.1.19-.07.13-.15.25a.75.75,0,0,1-.07.12c-.07.13-.16.27-.25.41s-.25.44-.37.66a2,2,0,0,0-.1.21c-.08.15-.15.3-.22.44S125.43,184.42,125.39,184.5Z"/></svg>