<svg id="图层_35_复制" data-name="图层 35 复制" xmlns="http://www.w3.org/2000/svg" viewBox="0 0 240 240"><path d="M120.2,198.87c8.39,5.9,19.07,6.75,27.42,2.13,8.68-4.8,11.31-13.55,11.83-15.44-1.67-.33-4.24-.82-7.39-1.31-9.65-1.5-10.39-.8-14-2-2-.66-9.8-3.21-12.65-10.35a15.72,15.72,0,0,1-.82-8.21,14.49,14.49,0,0,0-2,7.56,14.74,14.74,0,0,0,3.78,9.36l-9.69-2c-14.16-2.89-19.83-4-27.92-5.42l-3-.5.33-4.43c-1.69-.52-4.86-1.49-8.87-2.63-15-4.27-20.09-4.8-25.62-9.36a28.86,28.86,0,0,1-5.91-6.73l-2.63,3.12-23.65-7.07a29.61,29.61,0,0,0,2.79,13.64,15.7,15.7,0,0,1-12.15-13.47,85.87,85.87,0,0,0-1.31,14.45c0,2.06.05,4,.16,5.91q32.3,4.42,66.52,10.35,36.27,6.33,70,13.63a22.31,22.31,0,0,1-25.29,8.71Z"/><path d="M118.88,175.55c-13.23-4-23.63-7.91-30-9.71-17.55-4.91-23.51-8-33.5-14.47a34.79,34.79,0,0,1-10.84-11.15c-.65.89-.45,2.21-1,3.94a13.34,13.34,0,0,0-.5,2.47,65.35,65.35,0,0,1-9-1.32c-9.09-2.21-14.92-6.44-19.37-9.85,1.16-4.68,1.86-9.1,4.42-14.93A98.07,98.07,0,0,1,29.87,101.8c-.94,1.58-5.73,9.93-2.63,18.89a17,17,0,0,0,5.26,7.88,17.24,17.24,0,0,0,11.17,3.78,12.23,12.23,0,0,1,3.77-10.51c.94,3.33,2.83,10.17,6.9,14.48a39.6,39.6,0,0,0,8.7,7.24c6.05,3,14.22,7.61,27.76,14.76-.6,1.58-1.2,2.17-1.81,3.76Z"/><path d="M118.51,168.81a43.22,43.22,0,0,1-13.7-6.87,44.3,44.3,0,0,1-5.92-5.35,19.73,19.73,0,0,1,3.64-4.25,19,19,0,0,1,7.47-4,9.31,9.31,0,0,0-3.32,5.56c-.57,3.73,1.74,6.68,3.43,8.84A19.2,19.2,0,0,0,118.51,168.81Z"/><path d="M153.73,163.83a27.92,27.92,0,0,0-1.74,4.43c-1.35,4.56-.59,6.38-1.85,7.93-1.91,2.34-7.28,2.7-10.1.58-7.43-5.56,2-29,2.55-30.43,2.73-6.67,8.47-20.7,23-28.79,3-1.66,13.31-7.43,26.23-6.77,5.5.29,10.14,1.67,16.83-.23a30.48,30.48,0,0,0,11.49-6.3,32.55,32.55,0,0,1-12.65,9c-6.59,2.53-10.43,1.3-16.14,4.08-3.13,1.53-7.48,4.58-11.37,11.43a7.71,7.71,0,0,0,3.25-.47,8,8,0,0,0,4.06-3.5,34,34,0,0,1-8.36,10.61c-6.15,5.17-10.58,4.9-22.63,11-10.85,5.47-12.93,8.54-13.7,9.8-3.31,5.44-4.37,13.67-.93,16.44a5.35,5.35,0,0,0,5.34.7c1.66-.85,1.71-2.61,3.83-5.83A25.26,25.26,0,0,1,153.73,163.83Z"/><path d="M222.84,72.41c-6.55,2.09-7.11,7.86-15.6,11.33-4.52,1.85-8.54,1.91-12.15,2-8.07.13-10.75-2-16.92-2.79-12-1.46-22.3,4.31-25.45,6.07-5.16,2.9-7.74,5.72-20.86,13.8-2.77,1.71-6.36,3.86-8.71,2.46-2-1.19-2.53-4.66-2-7.22.8-3.62,3.43-4,5.75-8s3.16-9.68,1.31-11c-1.47-1.06-4.6.72-11.49,5.91-11.56,8.7-14,12.2-22,18.39-11,8.54-18.07,10.93-23,12-8.42,1.82-11.77,0-13.14-1-4.34-3.05-5-8.72-5.26-10.84-1.12-9.6,4.45-17.28,9.2-23.82,2.77-3.8,6.66-7.9,12.66-13.66A49.51,49.51,0,0,1,82,60.4c-9.51,4.27-23.61,12.71-33.4,27.94-3.61,5.62-9,14.24-7.88,25.29a30.91,30.91,0,0,0,2.13,8.54,34.89,34.89,0,0,1,9.37-15.11c-1,4.39-1.86,12.16,2.13,19.22C57,131,60.82,133.45,65,136.13l27.75,17.74a96.77,96.77,0,0,1,8.87-9.69c6.94-6.63,13.64-13,19.38-11.34.15,0,3.84,1.18,4.6,4.27.81,3.33-1.9,5.72-2.14,5.92a6.82,6.82,0,0,1-5.75,1.31,11.87,11.87,0,0,0,4.27,2.14c6.67,1.75,12.32-3.31,12.65-3.62,3.63-3.35,3.65-7.16,5.09-11.49,3.39-10.21,12.15-15.86,21.19-21.68,6.47-4.18,15.24-9.83,26.93-10.18,5.72-.18,8.36,1,13.3-.83s7.91-5.08,13.64-11.33c6.64-7.24,7.35-10,11.66-11.82A18.49,18.49,0,0,1,238,74.87C230.66,71.08,225.84,71.45,222.84,72.41Z"/><path d="M173.08,74.87c-5.62-1.55-10.38-1.52-17.41-1.48-3.54,0-6.49.18-8.54.33.45-1.09,2.13-5.46,0-8.54-1.44-2.09-4-2.63-5.91-3s-4-.67-6-.95c-7.93-1.13-15.67-1.38-23.58,2.6-3.92,2-8,3.68-11.83,5.75-2.61,1.39-5,2.74-5.75,2s.28-3.2,1-4.44c2.23-3.85,6.5-5.06,10-6.73a40.8,40.8,0,0,1,7.15-2.61,43.09,43.09,0,0,0-10.86.81A46.93,46.93,0,0,0,88.92,63.2,69.66,69.66,0,0,0,75,73.39C69.5,78.65,64,84,63.37,92.12c-.06.78-.41,6,1.53,10A8.45,8.45,0,0,0,68,105.75c5.27,3.29,13.27-1.18,20.86-5.42A88.89,88.89,0,0,0,104.76,88.5c11.16-10,12-14.21,19.38-16.75,4.53-1.55,11.76-2.58,14.45.82,1.34,1.69,1.32,4.18,1.32,5.09,0,4.64-3.14,6.87-2,9,.73,1.35,2.58,1.62,3.45,1.8,3.38.71,6.15-1.85,8.21-2.63,7.46-2.8,10.31-5.07,14.29-6.57S174,76.72,182.77,79A40.69,40.69,0,0,0,173.08,74.87Z"/></svg>