<svg t="1721701951627" class="icon" viewBox="0 0 1024 1024" version="1.1" xmlns="http://www.w3.org/2000/svg"
    p-id="21028" width="200" height="200">
    <path
        d="M857.38845 749.241187c0 75.051838-153.972585 135.8928-343.909841 135.8928-189.924816 0-343.889107-60.849255-343.889107-135.8928v-120.653532h687.794801v120.653532z"
        fill="#D3D3E8" p-id="21029"></path>
    <path
        d="M513.482756 901.725092c-93.890476 0-182.415071-14.550909-249.260512-40.965639-71.71786-28.342965-111.211407-67.948474-111.211407-111.518266v-120.653532a16.586958 16.586958 0 0 1 16.586958-16.586958h687.794802a16.586958 16.586958 0 0 1 16.586958 16.586958v120.653532c0 43.573939-39.497694 83.179448-111.219701 111.518266-66.853734 26.418877-155.382476 40.96564-249.277098 40.965639z m-327.302149-256.546333v104.066575c0 28.600062 32.887791 58.000445 90.233051 80.662377 63.059468 24.921904 147.25072 38.643465 237.069098 38.643465 89.822524 0 174.02207-13.725708 237.085684-38.639319 57.345261-22.661931 90.237198-52.066461 90.237199-80.666523v-104.066575H186.180607z"
        fill="#6E6E96" p-id="21030"></path>
    <path
        d="M210.45562 727.881332s289.629021 172.574858 606.983141-12.747077l19.439915-59.870625s-333.555432 162.154102-639.547487 37.059411l13.124431 35.558291z"
        fill="#FFFFFF" opacity=".47" p-id="21031"></path>
    <path
        d="M155.585662 732.570919a9.728251 2.525364 61.033 1 0 9.422897 17.02247 9.728251 2.525364 61.033 1 0-9.422897-17.02247Z"
        fill="#FFFFFF" opacity=".42" p-id="21032"></path>
    <path d="M178.397177 620.269295a331.70184 135.896947 0 1 0 663.403679 0 331.70184 135.896947 0 1 0-663.403679 0Z"
        fill="#D3D3E8" p-id="21033"></path>
    <path
        d="M510.099016 772.7532c-90.70578 0-176.236429-14.575789-240.838483-41.040281-69.292017-28.388579-107.454461-67.969207-107.454461-111.443624s38.162444-83.050899 107.454461-111.443624c64.597908-26.464492 150.128557-41.040281 240.838483-41.040281 90.70578 0 176.236429 14.575789 240.838484 41.040281 69.292017 28.388579 107.450314 67.96506 107.450314 111.443624s-38.158297 83.055046-107.450314 111.443624c-64.602055 26.468638-150.132704 41.040281-240.838484 41.040281z m0-271.793894c-86.492693 0-167.56145 13.696681-228.261422 38.564677-55.19725 22.612171-86.853459 52.045728-86.853459 80.745312s31.656209 58.133141 86.853459 80.749458c60.70412 24.867997 141.76873 38.564677 228.261422 38.564678s167.557303-13.696681 228.261423-38.564678c55.19725-22.616317 86.853459-52.049874 86.853459-80.749458s-31.660356-58.133141-86.853459-80.745312c-60.70412-24.867997-141.764583-38.564677-228.261423-38.564677z"
        fill="#6E6E96" p-id="21034"></path>
    <path
        d="M513.482756 874.095367c-93.894623 0-182.415071-14.550909-249.260512-40.96564-71.713713-28.338818-111.211407-67.944327-111.211407-111.518265v-137.236344h720.968718v137.236344c0 43.573939-39.497694 83.179448-111.219701 111.522412-66.849588 26.414731-155.382476 40.961493-249.277098 40.961493z m-327.302149-256.542186v104.062428c0 28.600062 32.887791 58.004592 90.233051 80.666523 63.059468 24.917758 147.25072 38.639319 237.069098 38.639319 89.826671 0 174.026217-13.725708 237.085684-38.639319 57.345261-22.661931 90.237198-52.062314 90.237199-80.666523v-104.062428H186.180607z"
        fill="#6E6E96" opacity=".15" p-id="21035"></path>
    <path
        d="M97.481849 428.329164c0 205.736334 153.918677 328.566905 411.733912 328.566904 257.811088 0 411.742206-122.830571 411.742205-328.566904C920.962113 201.291029 736.245602 16.586958 509.219908 16.586958c-227.033988 0-411.738059 184.704071-411.738059 411.742206z"
        fill="#E794FF" p-id="21036"></path>
    <path
        d="M233.026323 374.662061c-34.944574-95.238166 30.238024-206.756432 145.604464-249.086349 115.358146-42.334064 237.210087 0.551516 272.158807 95.785536 34.944574 95.238166-58.668071 147.279747-174.03451 189.613811-115.358146 42.329917-208.784187 58.921022-243.728761-36.312998z"
        fill="#FFFFFF" opacity=".34" p-id="21037"></path>
    <path
        d="M343.234219 266.855127c-12.212148-33.298318 10.582479-72.298403 50.930254-87.098116 40.343629-14.80386 82.955524 0.186603 95.171819 33.484921s-10.582479 35.475356-50.926108 50.27507c-40.347775 14.808007-82.955524 36.636444-95.175965 3.338125z"
        fill="#FFFFFF" opacity=".73" p-id="21038"></path>
    <path
        d="M93.351696 663.743712c-11.01374 26.588894 5.017555 64.195674 44.001053 103.175026 18.652034 18.652034 22.964643 30.91809 20.787605 36.180302-2.691234 6.535261-22.097975 18.892545-76.12999 18.892545-1.13206 0-11.403534 0.087082-22.044068 3.570343C41.699909 831.520792 31.225245 844.520821 31.225245 861.232181c0 19.274045 8.106876 30.839302 14.919969 37.142346 14.895088 13.787909 34.74553 13.879137 40.028476 13.651066 4.37481 0.070495 83.552654 0.39394 119.492446-56.598847 27.297986-43.275373 21.03641-105.52208-18.610567-185.01093l0.439554 0.957897c-5.386615-12.635115-21.517431-34.023998-47.774586-34.023998-22.512649-0.016587-39.410612 9.616289-46.368841 26.393997zM836.443269 671.348832l0.431261-0.949603c-39.568188 79.327127-45.879526 141.495045-18.75985 184.774566 35.827829 57.150364 116.270429 56.884973 119.666609 56.847651l-1.546734-0.062201c2.541951 0.19075 25.278524 1.472093 41.554476-13.593012 6.8048-6.307191 14.907529-17.868301 14.907529-37.142346 0-16.715507-10.470517-29.711389-28.732758-35.678546-10.64468-3.470821-20.916154-3.566196-22.044067-3.566196-54.036162 0-73.43461-12.353137-76.134138-18.892545-2.172892-5.262212 2.131424-17.519974 20.783459-36.176156 38.979351-38.975205 55.027233-76.586132 44.005199-103.170879-6.949935-16.794295-23.852046-26.423024-46.364694-26.423024-26.240568 0.016587-42.371384 21.401323-47.766292 34.032291z"
        fill="#D3D3E8" p-id="21039"></path>
    <path
        d="M83.959331 928.658165c-11.02618 0-32.058443-2.351201-49.080809-18.108811C25.643733 901.998777 14.638287 886.510705 14.638287 861.232181c0-23.997182 15.01949-43.229759 40.177759-51.440304 12.767811-4.179913 24.892877-4.391397 27.194318-4.391397 35.218259 0 51.693255-5.440522 58.340478-8.645952-1.977995-3.545462-6.128881-9.508474-14.725072-18.108811-44.606477-44.598183-61.512734-87.662073-47.596276-121.250663 9.51262-22.939763 32.556052-36.632297 61.637136-36.632297 31.971362 0 53.629782 23.055872 62.582592 42.951928 42.097699 84.701301 47.965336 152.177046 17.44948 200.557056-39.435493 62.541125-123.241098 64.344957-132.670784 64.344957l-0.576396-0.004147c-0.688359 0.029027-1.526 0.045614-2.492191 0.045614z m55.765353-274.721492c-9.126974 0-25.22047 2.09825-31.050785 16.159844-8.073702 19.489676 7.410223 52.095488 40.409976 85.091095 21.986013 21.986013 30.188264 40.23996 24.382828 54.255939-7.625854 18.502752-40.961493 29.130845-91.456339 29.130845-0.087082 0-8.583751 0.033174-16.885524 2.749289-11.490615 3.752799-17.312637 10.449784-17.312637 19.908496 0 10.673707 3.23031 19.075002 9.599702 24.967519 10.155365 9.404805 24.449176 9.388218 28.052693 9.251375l0.485168-0.020733 1.078152 0.008293c7.555359 0 74.657898-1.368424 104.609798-48.865178 23.939127-37.95096 17.4868-94.574688-19.186964-168.282983l-0.02488 0.008294-0.439555-0.957897 0.016587-0.004147c-1.069859-2.318027-11.362066-23.400051-32.27822-23.400051zM939.539506 928.658165c-0.991071 0-1.841152-0.020734-2.537804-0.049761-11.150583-0.049761-94.019025-2.537805-132.936175-64.622788-30.325106-48.396597-24.386975-115.797701 17.656816-200.353866 8.969398-19.858735 30.631965-42.881433 62.478924-42.902167 29.139138 0 52.203304 13.709121 61.703484 36.669618 13.912311 33.572003-2.993946 76.631746-47.604569 121.238223-8.592044 8.596191-12.738784 14.559202-14.716779 18.104664 6.65137 3.20543 23.122219 8.645952 58.340478 8.645952 2.293147 0 14.385039 0.211484 27.186025 4.38725 25.162415 8.222984 40.177759 27.455562 40.177759 51.448597 0 25.25779-10.993006 40.750009-20.215355 49.304733-17.677551 16.363034-40.526085 18.129545-49.532804 18.129545z m-1.103033-33.190503c4.18406 0.107815 18.291268-0.207337 28.090014-9.272109 6.356952-5.896664 9.587262-14.297958 9.587262-24.967519 0-9.46286-5.817876-16.159844-17.300198-19.91679-8.3308-2.711968-16.806735-2.745142-16.88967-2.745141-50.474113 0-83.809752-10.623947-91.464633-29.143285-5.792995-14.011833 2.409256-32.257487 24.378682-54.235206 33.008046-32.999753 48.491972-65.605566 40.414123-85.095242-5.826169-14.082327-21.948692-16.184724-31.038345-16.184724-20.87054 0.01244-31.191775 21.077877-32.261634 23.391758l0.012441 0.004146-0.431261 0.949604-0.024881-0.008294c-36.619857 73.592186-43.126091 130.162006-19.332099 168.129553 29.578693 47.185749 98.190645 49.002021 104.713466 49.068369l0.004146-0.049761 1.542587 0.074641z"
        fill="#6E6E96" p-id="21040"></path>
    <path
        d="M503.46838 4.73143c-227.033988 0-411.738059 184.704071-411.738059 411.738059 0 205.732187 153.918677 328.566905 411.733912 328.566904 257.819382 0 411.742206-122.834718 411.742206-328.566904 0-227.033988-184.712364-411.738059-411.738059-411.738059z m-31.457166 630.192443c-214.353258 0-342.329933-102.125901-342.329933-273.183052 0-188.767876 153.566204-342.33408 342.33408-342.33408 188.763729 0 342.338227 153.562057 342.33408 342.33408-0.004147 171.057151-127.984968 273.183052-342.338227 273.183052z"
        fill="#C66CE0" opacity=".48" p-id="21041"></path>
    <path
        d="M884.213708 646.460102s32.033563 28.06928-17.026513 146.085486c-0.008293-0.004147 131.783381-130.684495 17.026513-146.085486z"
        fill="#6E6E96" opacity=".15" p-id="21042"></path>
    <path
        d="M813.470332 726.566816s-26.406437 128.971892 94.632742 139.969045c121.039179 11.0013 55.864875-40.986373 55.864875-40.986373s74.384213 91.958095-64.465213 81.877371c-138.845279-10.08487-86.032405-180.860043-86.032404-180.860043z"
        fill="#6E6E96" opacity=".2" p-id="21043"></path>
    <path
        d="M509.215761 773.483026c-130.294702 0-238.495576-31.382525-312.896376-90.75554-75.512126-60.260418-115.424494-148.233497-115.424494-254.406616C80.894891 192.143322 273.042359 0 509.219908 0c114.230233 0 221.746895 44.60233 302.732717 125.588153 80.989969 80.989969 125.596446 188.502484 125.592299 302.736864 0 106.173118-39.916514 194.14205-115.432787 254.406615-74.4008 59.368869-182.601674 90.751394-312.896376 90.751394zM509.219908 33.173916c-217.886281 0-395.151101 177.26482-395.151101 395.151101 0 95.723335 35.595612 174.731163 102.946955 228.477053 68.462669 54.633293 169.502124 83.511187 292.199999 83.511187 122.697875 0 223.741477-28.877894 292.204146-83.511187 67.351343-53.745891 102.951102-132.753718 102.951101-228.477053 0-105.372798-41.152243-204.554513-115.872342-279.278759S614.588558 33.173916 509.219908 33.173916z"
        fill="#6E6E96" p-id="21044"></path>
    <path
        d="M59.96215 825.561928s-10.163659 34.368177 40.451443 34.368177c50.619249 0 121.234076-17.934648 104.16195-149.929514 0 0 49.872836 190.310463-122.880332 202.033296 0.004147-0.008293-107.354939-36.060047-21.733061-86.471959z"
        fill="#6E6E96" opacity=".2" p-id="21045"></path>
    <path
        d="M139.728831 637.349715s-23.905953 99.335145 33.314905 156.56015c0 0-161.266699-141.453578-33.314905-156.56015z"
        fill="#6E6E96" opacity=".15" p-id="21046"></path>
    <path
        d="M593.228703 822.928748c0-53.513673-33.161476-97.294949-73.691708-97.294949-40.521938 0-73.691708 43.781276-73.691707 97.294949v87.160318c0 53.509527 33.165623 97.303242 73.691707 97.303242 40.530232 0 73.691708-43.793716 73.691708-97.303242v-87.160318z"
        fill="#D3D3E8" p-id="21047"></path>
    <path
        d="M593.228703 822.928748c0-53.513673-33.161476-97.294949-73.691708-97.294949-40.521938 0-73.691708 43.781276-73.691707 97.294949v87.160318c0 53.509527 33.165623 97.303242 73.691707 97.303242 40.530232 0 73.691708-43.793716 73.691708-97.303242v-87.160318z"
        fill="#D3D3E8" p-id="21048"></path>
    <path
        d="M519.532849 721.229962c-40.521938 0-73.691708 43.793716-73.691708 97.307389v57.216712c0-53.509527 33.165623-97.294949 73.691708-97.294949 40.530232 0 73.691708 43.785422 73.691707 97.294949v-57.216712c0.004147-53.521967-33.157329-97.307389-73.691707-97.307389z"
        fill="#FFFFFF" opacity=".62" p-id="21049"></path>
    <path
        d="M519.536995 1023.97512c-49.777461 0-90.278666-51.087831-90.278665-113.890201v-87.160318c0-62.798223 40.497058-113.881907 90.278665-113.881907s90.278666 51.083684 90.278666 113.881907v87.160318c0 62.80237-40.501205 113.8902-90.278666 113.890201z m0-281.754363c-30.951264 0-57.10475 36.959889-57.104749 80.707991v87.160318c0 43.752249 26.149339 80.716284 57.104749 80.716284 30.95541 0 57.10475-36.964036 57.10475-80.716284v-87.160318c0-43.748102-26.153486-80.707991-57.10475-80.707991z"
        fill="#6E6E96" p-id="21050"></path>
    <path
        d="M519.536995 1023.97512c-49.777461 0-90.278666-51.087831-90.278665-113.890201v-87.160318c0-62.798223 40.497058-113.881907 90.278665-113.881907s90.278666 51.083684 90.278666 113.881907v87.160318c0 62.80237-40.501205 113.8902-90.278666 113.890201z m0-281.754363c-30.951264 0-57.10475 36.959889-57.104749 80.707991v87.160318c0 43.752249 26.149339 80.716284 57.104749 80.716284 30.95541 0 57.10475-36.964036 57.10475-80.716284v-87.160318c0-43.748102-26.153486-80.707991-57.10475-80.707991z"
        fill="#6E6E96" p-id="21051"></path>
    <path
        d="M517.335077 943.565694c-40.530232 0-73.691708-43.785422-73.691708-97.299096v57.216712c0 53.513673 33.161476 97.303242 73.691708 97.303242 40.526085 0 73.691708-43.789569 73.691708-97.303242V846.266598c0.004147 53.513673-33.161476 97.299096-73.691708 97.299096z"
        fill="#6E6E96" opacity=".15" p-id="21052"></path>
</svg>