<svg t="1721701892342" class="icon" viewBox="0 0 1033 1024" version="1.1" xmlns="http://www.w3.org/2000/svg"
    p-id="20838" width="200" height="200">
    <path d="M350.906063 832.992658l-47.81686-47.808603-103.552278 103.568792 47.511348 47.531991z" opacity=".61"
        p-id="20839"></path>
    <path
        d="M913.899842 73.314782a83.219172 83.219172 0 0 1 30.278782 65.016397l2.113818 163.804329c-0.404598 46.594809-31.517347 107.197787-69.161461 134.665027l-354.382302 289.981059c-37.639986 27.471368-95.402521 22.987764-128.360732-9.974575l-50.236191-50.236191L913.899842 73.314782z"
        p-id="20840"></path>
    <path d="M422.053357 588.149031L944.178624 138.32705s-3.951022-50.335275-30.278782-65.012268L422.053357 588.149031z"
        p-id="20841"></path>
    <path
        d="M794.357692 196.816211s-160.489104 117.102178-358.622322 34.522931L332.765217 375.22322s140.395454 45.347988 339.057126-48.506328l122.535349-129.900681z"
        opacity=".68" p-id="20842"></path>
    <path
        d="M671.826472 326.721021L387.480883 611.066609l-122.147265-121.854138 67.431599-113.985123c0-0.004129 160.427176 25.320394 339.061255-48.506327zM473.920324 705.498921s396.538921-260.350459 424.5759-336.45614c28.032851-76.105681-8.108471-184.356249-8.108471-184.356248l53.790871-46.359483V323.430567s-2.510158 60.561692-117.234291 154.432522-321.783275 258.880695-321.783275 258.880695l-31.240734-31.244863z"
        opacity=".68" p-id="20843"></path>
    <path d="M296.75188 707.41044a60.949776 56.891412 90 1 0 113.782824 0 60.949776 56.891412 90 1 0-113.782824 0Z"
        p-id="20844"></path>
    <path d="M318.092352 695.181676a34.593116 30.245754 90 1 0 60.491507 0 34.593116 30.245754 90 1 0-60.491507 0Z"
        p-id="20845"></path>
    <path
        d="M251.882804 606.690347a20.200993 20.200993 0 0 0-14.342581 6.898806c-9.821819 11.27094-19.540425 23.536861-28.920489 35.418826-28.965903 36.587206-58.885501 74.421233-98.940688 93.020348a20.213378 20.213378 0 0 0-5.775841 32.615541l157.363792 157.372049a20.205121 20.205121 0 0 0 34.21329-10.940656c7.187805-42.676816 48.659084-82.59989 126.791883-122.027537a20.192736 20.192736 0 0 0 4.888202-32.615541l-160.38589-154.147652a20.139064 20.139064 0 0 0-14.891678-5.594184z"
        fill="#DADAF0" p-id="20846"></path>
    <path d="M302.07358 733.6515l-77.633244-77.633244-103.572921 103.560535 77.348374 77.356632z" fill="#FFFFFF"
        opacity=".61" p-id="20847"></path>
    <path
        d="M1014.908934 138.223837c0.173399-27.888352-10.577344-54.096384-30.287039-73.822594-19.771623-19.796395-46.074612-30.592552-74.074435-30.390252l-213.966205 1.589491c-53.250031 0.388084-119.422422 34.485774-150.626 77.608473l-246.528075 344.465527c-32.921054 45.45533-27.384669 114.843861 12.373263 154.601792l118.807268 118.819654c39.79096 39.795088 109.134077 45.178717 154.568764 12.022336l0.450012-0.330284 354.8158-290.344371-0.887638 0.681211c42.974072-31.356333 77.001576-97.603038 77.463974-150.803527l-2.109689-164.097456z"
        fill="#FFFFFF" p-id="20848"></path>
    <path
        d="M515.775559 781.369275c-37.024832 0-72.32393-14.065968-96.847514-38.597809l-118.807269-118.819654c-45.253031-45.257159-51.569712-124.195026-14.070096-175.967036l246.474404-344.391212c34.576602-47.779703 105.030299-84.082039 163.936443-84.511408l214.857972-1.589492c32.107729 0 62.295683 12.513633 84.99032 35.23717 22.818493 22.839136 35.290841 53.200489 35.117442 85.494003l2.109688 164.093328c-0.503683 58.452004-36.294079 128.571288-83.31 163.457531l-355.294711 290.666398c-22.034069 16.0807-50.137105 24.928182-79.156679 24.928181z m395.539811-730.844086h-0.65231l-213.962077 1.589491c-47.754932 0.346798-109.38179 32.095344-137.369227 70.775724l-246.478533 344.391212c-28.441577 39.270763-23.65246 99.039774 10.622758 133.314992l118.807268 118.819654c18.376174 18.376174 45.162203 28.920489 73.49231 28.920489 22.075354 0 43.26307-6.593294 59.665797-18.561959l0.070185-0.053671 354.002476-289.675546-0.016515-0.020642 0.887638-0.681211 0.012386 0.016514c38.259268-28.297078 69.702301-89.80008 70.106899-137.187571-0.008257-0.301384-2.080789-161.801983-2.10556-163.68873 0.140371-23.801088-8.897024-45.835156-25.456636-62.411282a86.534397 86.534397 0 0 0-61.626859-25.547464z"
        fill="#6E6E96" p-id="20849"></path>
    <path
        d="M964.429159 73.314782a83.248072 83.248072 0 0 1 30.278782 65.016397l2.105561 163.804329c-0.396341 46.594809-31.513218 107.197787-69.161461 134.665027l-354.386431 289.981059c-37.639986 27.471368-95.398393 22.987764-128.356603-9.974575l-50.236191-50.236191L964.429159 73.314782z"
        fill="#D6D6ED" p-id="20850"></path>
    <path d="M472.574417 588.149031L994.707941 138.32705s-3.951022-50.335275-30.278782-65.012268L472.574417 588.149031z"
        fill="#FFFFFF" p-id="20851"></path>
    <path
        d="M844.878752 196.816211s-160.489104 117.102178-358.626451 34.522931L383.273891 375.22322s140.416097 45.347988 339.061255-48.506328l122.543606-129.900681z"
        fill="#D3D3F2" opacity=".36" p-id="20852"></path>
    <path
        d="M722.335146 326.721021l-284.333203 284.34146-133.137463-127.778607 78.409411-108.060654s160.427176 25.324523 339.061255-48.502199z"
        fill="#CECEED" opacity=".68" p-id="20853"></path>
    <path
        d="M524.428998 705.498921s355.261683-301.627697 383.298663-377.733377c28.03698-76.105681 33.177024-143.074882 33.177024-143.074883l53.790871-46.359482V323.430567s-2.510158 60.561692-117.234291 154.432522-321.787404 258.880695-321.787404 258.880695l-31.244863-31.244863z"
        fill="#FFFFFF" opacity=".68" p-id="20854"></path>
    <path
        d="M275.54765 954.442198a36.471606 36.471606 0 0 1-25.952062-10.746614L92.223538 786.323535a36.690419 36.690419 0 0 1-10.18926-32.367828 36.756476 36.756476 0 0 1 20.675776-26.901629c36.463349-16.931181 65.127868-53.142689 92.855207-88.161045 8.550226-10.829185 19.073899-24.160272 29.523257-36.153708a36.855561 36.855561 0 0 1 27.75211-12.587948c9.483278 0 18.491773 3.633124 25.361679 10.226418l160.398276 154.160037a36.756476 36.756476 0 0 1 10.886985 31.905431 36.797762 36.797762 0 0 1-19.775752 27.355769c-72.09686 36.380778-111.780477 73.401481-117.952659 110.025843a36.537663 36.537663 0 0 1-25.039652 28.879204 36.711062 36.711062 0 0 1-11.171855 1.738119z m-22.702894-331.262425c-1.25095 0.053671-2.200517 0.507812-2.856956 1.267465-9.916776 11.382411-20.167964 24.362571-28.404421 34.795415-30.237496 38.19734-61.379145 77.538288-104.943599 97.76818a3.686795 3.686795 0 0 0-2.072532 2.7042c-0.210556 1.197279 0.165142 2.402816 1.007366 3.240912l157.380307 157.388563a3.748723 3.748723 0 0 0 3.736337 0.895895 3.703309 3.703309 0 0 0 2.506029-2.877599c8.129114-48.254486 52.494507-92.091425 135.639365-134.049873a3.67028 3.67028 0 0 0 0.904153-5.940983l-160.406534-154.168294a3.604224 3.604224 0 0 0-2.489515-1.023881z"
        fill="#6E6E96" p-id="20855"></path>
    <path
        d="M188.154514 490.595535c-29.333344 28.990674-29.358115 76.976805-0.053671 106.611534l244.822984 247.626269c29.300316 29.638857 77.269932 30.163183 106.603277 1.160122 29.333344-28.994803 29.353987-76.980934 0.057799-106.611533l-244.822984-247.626269c-29.304444-29.634728-77.282318-30.167311-106.607405-1.160123z"
        fill="#DADAF0" p-id="20856"></path>
    <path
        d="M239.208157 538.296796c-29.325087 28.990674-29.341601 76.980934-0.053671 106.603276l89.358325 92.157482c29.312701 29.642985 77.282318 30.167311 106.615662 1.168379 29.325087-28.998932 29.353987-76.980934 0.041285-106.611533l-89.345939-92.157482c-29.308573-29.642985-77.278189-30.167311-106.615662-1.160122z"
        fill="#F0F0F0" p-id="20857"></path>
    <path
        d="M487.05324 883.918316h-0.004129c-24.957082 0-48.349443-9.759891-65.866878-27.475497l-244.818856-247.626269c-17.253208-17.451379-26.748872-40.591899-26.736487-65.169154 0.012386-24.639183 9.574106-47.651718 26.922272-64.801713 17.067424-16.881639 39.823988-26.179132 64.079216-26.179132 24.957082 0 48.353572 9.755762 65.875136 27.475497l244.827113 247.626269c17.24908 17.44725 26.744744 40.58777 26.732358 65.165025-0.012386 24.643312-9.574106 47.655847-26.922272 64.801713-17.083938 16.885767-39.840503 26.183261-64.087473 26.183261z m-246.424862-398.223369c-15.498575 0-30.010426 5.907954-40.856126 16.638054-11.031484 10.903499-17.108709 25.580493-17.116966 41.335038a59.211657 59.211657 0 0 0 17.19128 41.92542l244.822985 247.626269a59.162114 59.162114 0 0 0 42.37956 17.670192h0.004129c15.494446 0 30.010426-5.912083 40.860254-16.642183 11.027356-10.899371 17.108709-25.576364 17.116966-41.330909a59.228171 59.228171 0 0 0-17.19128-41.92542l-244.822984-247.626269a59.186885 59.186885 0 0 0-42.387818-17.670192z"
        fill="#6E6E96" p-id="20858"></path>
    <path
        d="M54.228497 753.146511c-24.098343 23.825859-19.850066 67.567841 9.454379 97.219083l120.322446 121.693125c29.300316 29.638857 73.001012 34.390817 97.107612 10.569087 24.094215-23.825859 19.833552-67.580227-9.466764-97.214955l-120.326574-121.70551c-29.296187-29.642985-72.984498-34.394946-97.091099-10.56083z"
        fill="#DADAF0" p-id="20859"></path>
    <path
        d="M94.92361 791.054852c-20.262921 20.039979-20.271178 53.192232-0.024772 73.669837l22.31481 24.255229c20.254664 20.485863 53.402788 20.849175 73.678094 0.805067 20.262921-20.039979 20.271178-53.19636 0.033029-73.673966l-22.331324-24.255228c-20.23815-20.477605-53.398659-20.840918-73.669837-0.800939z"
        fill="#F0F0F0" p-id="20860"></path>
    <path
        d="M241.982542 1014.310294c-25.056167 0-50.467389-11.171855-69.722943-30.646222L51.937153 861.970947c-35.77801-36.20325-39.956102-90.287249-9.322265-120.574288 13.013188-12.86456 31.038435-19.95328 50.744001-19.953279 25.04791 0 50.455003 11.171855 69.70643 30.650351l120.322446 121.701382c35.782138 36.186736 39.968488 90.270734 9.334651 120.56603-13.013188 12.868689-31.034306 19.949151-50.739874 19.949151z m-148.623653-259.83439c-7.749287 0-18.817929 1.808305-27.525039 10.412202-17.385322 17.187152-12.992545 51.012357 9.590621 73.868007l120.318317 121.688996c13.09163 13.244387 29.944369 20.840918 46.235626 20.840918 7.749287 0 18.817929-1.808305 27.520911-10.408073 17.381193-17.19128 12.984288-51.012357-9.603006-73.85975l-120.326575-121.705511c-13.083373-13.240258-29.927855-20.836789-46.210855-20.836789z"
        fill="#6E6E96" p-id="20861"></path>
    <path
        d="M491.540973 787.904769c29.333344-29.00306 29.358115-76.980934 0.053671-106.615662L293.911438 481.347584c2.035375 1.659677 4.004693 3.447339 5.899697 5.367115l244.83537 247.626269c29.304444 29.6306 29.279673 77.608473-0.053671 106.603276s-77.315346 28.478734-106.603276-1.160122L390.837394 792.103504c29.523257 24.201557 73.261111 22.929964 100.703579-4.198735zM243.150922 936.817421c19.507396-19.280326 19.528039-51.185757 0.037157-70.899581l-131.481916-132.984707c1.358293 1.11058 2.671172 2.295474 3.926251 3.567067l162.825863 164.691967c19.486754 19.705567 19.470239 51.619254-0.033028 70.903709-19.511525 19.284455-51.421084 18.941785-70.895452-0.776167l-31.368719-31.719646c19.63951 16.117857 48.737527 15.25499 66.989844-2.782642z"
        fill="#6E6E96" opacity=".15" p-id="20862"></path>
    <path
        d="M362.263703 773.351632s-69.198618 35.142213-105.686738 105.707381l37.933112 42.833701s36.640877-96.645215 101.037992-106.087207l-33.284366-42.453875z"
        fill="#6E6E96" opacity=".15" p-id="20863"></path>
</svg>