<svg t="1721726446027" class="icon" viewBox="0 0 1024 1024" version="1.1" xmlns="http://www.w3.org/2000/svg"
    p-id="70494" width="200" height="200">
    <path
        d="M754.601984 428.032V297.82016c0-128.970752-105.525248-234.496-234.496-234.496h-19.53792c-128.974848 0-234.496 105.525248-234.496 234.496v130.21184h488.52992z"
        fill="#A6A6C9" p-id="70495"></path>
    <path
        d="M785.321984 458.752H235.352064V297.82016c0-146.239488 118.976512-265.216 265.216-265.216h19.53792c146.239488 0 265.216 118.976512 265.216 265.216V458.752zM296.792064 397.312h427.08992V297.82016c0-112.361472-91.410432-203.776-203.776-203.776h-19.53792c-112.361472 0-203.776 91.414528-203.776 203.776V397.312z"
        fill="#5A5A7D" p-id="70496"></path>
    <path
        d="M182.04672 429.944832c-50.642944 0-91.844608 41.201664-91.844608 91.844608v359.559168c0 50.642944 41.201664 91.844608 91.844608 91.844608h656.584704c50.642944 0 91.844608-41.201664 91.844608-91.844608V521.78944c0-50.642944-41.201664-91.844608-91.844608-91.844608H182.04672z"
        fill="#F0D754" p-id="70497"></path>
    <path
        d="M838.631424 1003.913216H182.04672c-67.584 0-122.564608-54.980608-122.564608-122.564608V521.78944c0-67.584 54.980608-122.564608 122.564608-122.564608h656.584704c67.584 0 122.564608 54.980608 122.564608 122.564608v359.559168c0 67.584-54.980608 122.564608-122.564608 122.564608zM182.04672 460.664832c-33.705984 0-61.124608 27.418624-61.124608 61.124608v359.559168c0 33.705984 27.418624 61.124608 61.124608 61.124608h656.584704c33.705984 0 61.124608-27.418624 61.124608-61.124608V521.78944c0-33.705984-27.418624-61.124608-61.124608-61.124608H182.04672z"
        fill="#5A5A7D" p-id="70498"></path>
    <path
        d="M359.194624 407.252992V328.237056c0-93.130752 43.446272-169.320448 145.1008-169.320448h12.095488c101.650432 0 145.096704 76.189696 145.096704 169.320448v79.015936"
        fill="#FFFFFF" p-id="70499"></path>
    <path
        d="M692.20352 407.252992h-61.44V328.237056c0-51.761152-14.860288-138.600448-114.376704-138.600448h-12.095488c-42.717184 0-114.3808 18.006016-114.3808 138.600448v79.015936h-61.44V328.237056c0-123.392 67.371008-200.040448 175.8208-200.040448h12.095488c108.449792 0 175.816704 76.648448 175.816704 200.040448v79.015936z"
        fill="#5A5A7D" p-id="70500"></path>
    <path
        d="M567.68512 735.232c0 27.144192-22.007808 49.152-49.152 49.152h-16.384c-27.144192 0-49.152-22.007808-49.152-49.152v-90.112c0-27.144192 22.007808-49.152 49.152-49.152h16.384c27.144192 0 49.152 22.007808 49.152 49.152v90.112z"
        fill="#FFFFFF" p-id="70501"></path>
    <path
        d="M518.53312 815.104h-16.384c-44.040192 0-79.872-35.831808-79.872-79.872v-90.112c0-44.040192 35.831808-79.872 79.872-79.872h16.384c44.040192 0 79.872 35.831808 79.872 79.872v90.112c0 44.040192-35.831808 79.872-79.872 79.872z m-16.384-188.416a18.45248 18.45248 0 0 0-18.432 18.432v90.112c0 10.162176 8.269824 18.432 18.432 18.432h16.384c10.162176 0 18.432-8.269824 18.432-18.432v-90.112c0-10.162176-8.269824-18.432-18.432-18.432h-16.384z"
        fill="#5A5A7D" p-id="70502"></path>
    <path
        d="M817.410048 958.857216H184.832c-65.728512 0-119.205888-57.58976-119.205888-128.376832h61.44c0 36.909056 25.915392 66.936832 57.765888 66.936832h632.578048c31.850496 0 57.769984-30.027776 57.769984-66.936832v-382.30016h61.44v382.30016c0 70.787072-53.477376 128.376832-119.209984 128.376832z"
        fill="#5A5A7D" opacity=".3" p-id="70503"></path>
    <path
        d="M190.464 626.688a30.72 30.72 0 0 1-30.72-30.72V524.288a30.72 30.72 0 0 1 30.72-30.72h102.4a30.72 30.72 0 0 1 0 61.44H221.184v40.96a30.72 30.72 0 0 1-30.72 30.72z"
        fill="#FFFFFF" p-id="70504"></path>
</svg>