<svg t="1721804467519" class="icon" viewBox="0 0 1024 1024" version="1.1" xmlns="http://www.w3.org/2000/svg" p-id="4507"
    width="200" height="200">
    <path
        d="M738.137374 136.848978v-28.448746c0-17.993363-13.804691-32.714835-30.669394-32.714834H330.100384c-16.868778 0.004075-30.669394 14.721472-30.669393 32.722984v819.423287c0 17.993363 13.800616 32.71076 30.669393 32.71076h377.367596c16.868778 0 30.669394-14.717397 30.669394-32.71076V136.848978z"
        fill="#5A5A7D" p-id="4508"></path>
    <path
        d="M707.46798 991.101809H330.100384c-33.762003 0-61.228774-28.383552-61.228773-63.27014V108.408382c0-34.886588 27.462696-63.274215 61.220624-63.282364h377.375745c33.762003 0 61.228774 28.383552 61.228774 63.274214v819.431437c0 34.890663-27.466771 63.27014-61.228774 63.27014z m-376.780856-61.11876h376.198191a3.296338 3.296338 0 0 0 0.696754-2.15138V108.400232a3.275966 3.275966 0 0 0-0.700829-2.155455H330.691199a3.292264 3.292264 0 0 0-0.700828 2.163605v819.423287c0 1.124585 0.419682 1.829488 0.696753 2.15138z"
        fill="#5A5A7D" p-id="4509"></path>
    <path d="M487.538235 852.272583h62.48782v61.11876H487.538235z" fill="#A6A6C9" p-id="4510"></path>
    <path d="M299.430991 131.026397h438.706383v677.745928H299.430991z" fill="#8FDBFF" p-id="4511"></path>
    <path
        d="M768.696754 839.331705H268.871611V100.467017h499.825143v738.864688z m-438.706383-61.11876h377.587623V161.585777H329.990371v616.627168z"
        fill="#5A5A7D" p-id="4512"></path>
    <path d="M391.793661 775.279244h-61.11876V162.490335h367.401163v61.11876H391.793661z" fill="#001963" opacity=".1"
        p-id="4513"></path>
</svg>