<svg t="1721715342423" class="icon" viewBox="0 0 1024 1024" version="1.1" xmlns="http://www.w3.org/2000/svg" p-id="1692"
    width="200" height="200">
    <path
        d="M521.872272 530.443834m-463.089989 0a463.08999 463.08999 0 1 0 926.179979 0 463.08999 463.08999 0 1 0-926.179979 0Z"
        fill="#FFE47F" p-id="1693"></path>
    <path
        d="M944.927449 450.070572c25.111515 194.220338-81.961196 388.530946-271.893702 465.781681-163.795193 66.61527-344.195991 27.840136-466.167381-84.533895 115.439113 138.359526 311.165322 192.968865 487.01158 121.458491 200.588487-81.583703 305.113118-298.769588 251.049503-502.706277z"
        fill="#EBA565" opacity=".63" p-id="1694"></path>
    <path
        d="M523.497135 490.61418c-22.571642 0-40.933411-18.365873-40.933411-40.933411a40.695426 40.695426 0 0 1 11.99362-28.960307 40.621569 40.621569 0 0 1 28.939791-12.001827 40.650291 40.650291 0 0 1 28.960306 12.001827 40.662601 40.662601 0 0 1 12.010034 28.960307h70.525609c0-29.780944-11.595612-57.781104-32.65728-78.83867a111.003566 111.003566 0 0 0-43.563555-26.95795V290.427806h-70.533815v53.509684c-44.232375 14.791996-76.208525 56.59118-76.208526 105.743279 0 61.461665 50.009665 111.475433 111.475433 111.475433a40.67491 40.67491 0 0 1 28.96441 12.001827 40.728252 40.728252 0 0 1 12.00593 28.976719c0 22.575745-18.378183 40.945721-40.95803 40.945721-22.571642 0-40.933411-18.369976-40.933411-40.945721h-70.542022c0 49.147995 31.97615 90.938973 76.208525 105.739175v61.338569H558.776352v-61.338569c44.244685-14.787892 76.229041-56.587077 76.229041-105.739175 0-29.789151-11.595612-57.781104-32.657279-78.850979-21.069874-21.069874-49.065932-32.669589-78.850979-32.669589z"
        fill="#DB8300" p-id="1695"></path>
    <path
        d="M103.002348 620.689368c-25.115619-194.220338 81.957093-388.530946 271.885496-465.773475 163.799296-66.623476 344.200095-27.844239 466.167381 84.521585-115.443217-138.355423-311.169425-192.960659-487.007477-121.446181-200.588487 81.579599-305.109015 298.765485-251.0454 502.698071z"
        fill="#FFFFFF" opacity=".61" p-id="1696"></path>
    <path
        d="M505.652367 86.724998h36.928699V164.948189h-36.928699zM411.114897 182.210304l-20.232824-75.556118 35.673124-9.552223 20.232824 75.552015zM324.287319 223.439145L285.175724 155.691395l31.98846-18.464349 39.111595 67.743647zM251.090535 285.688622l-55.310985-55.310984 26.10859-26.112694 55.310985 55.310985zM196.493505 364.773483l-67.743647-39.107492 18.464349-31.980254 67.743647 39.111596zM164.189099 455.289828l-75.552015-20.241031 9.56043-35.66902 75.552015 20.241031zM78.223191 514.154174h78.223191v36.928699H78.223191zM173.753632 645.612136l-75.552015 20.241031-9.556326-35.66902 75.552015-20.241031zM214.949648 732.431508l-67.739544 39.111596-18.464349-31.984357 67.739543-39.111596zM277.215538 805.615983L221.904553 860.922865l-26.112694-26.112694 55.310985-55.310984zM356.275779 860.233529l-39.107492 67.735441-31.980254-18.46435 39.107493-67.739544zM446.779814 892.496903l-20.24103 75.547912-35.66902-9.56043 20.24103-75.543809zM505.652367 900.297064h36.928699v78.214985h-36.928699zM637.106226 882.985711l20.236927 75.539706-35.664917 9.560429-20.24103-75.543808zM723.917391 841.793799l39.111596 67.739543-31.984357 18.46435-39.107492-67.735441zM797.163414 779.544322l55.310985 55.319191-26.116796 26.116797-55.310985-55.319192zM851.768651 700.463564l67.751853 39.119802-18.46435 31.984357-67.755956-39.119802zM884.060746 609.930807l75.556119 20.25334-9.56043 35.66902-75.556118-20.25334zM891.803464 514.158277h78.219088v36.928699h-78.219088zM874.500317 419.542847l75.572531-20.236927 9.556326 35.673123-75.580737 20.236927zM833.291992 332.748095l67.760059-39.111596 18.46435 31.98846-67.764163 39.111595zM771.001483 259.633374l55.3315-55.310985 26.108591 26.112693-55.331501 55.310985zM691.97817 204.983002l39.123905-67.751853 31.980253 18.46435-39.128008 67.755956zM601.412587 172.678597l20.265649-75.564325 35.66902 9.56043-20.265649 75.568428z"
        fill="#DB8300" p-id="1697"></path>
    <path
        d="M191.832282 867.249982L897.515102 261.024355s227.341278 378.888453-61.564244 620.43497c-288.909626 241.546517-644.118576-14.209343-644.118576-14.209343z"
        fill="#DB8300" opacity=".15" p-id="1698"></path>
    <path
        d="M521.872272 86.724998c244.660838 0 443.718835 199.049791 443.718836 443.718836s-199.057998 443.731145-443.718836 443.731145c-244.669044 0-443.722939-199.062101-443.722938-443.731145 0.004103-244.669044 199.053894-443.718835 443.722938-443.718836zM39.411128 530.443834c0 266.034348 216.430899 482.461144 482.465247 482.461144s482.461144-216.426796 482.461144-482.461144c0-266.026142-216.426796-482.461144-482.461144-482.461144-266.034348 0-482.465247 216.430899-482.465247 482.461144z"
        fill="#6E6E96" p-id="1699"></path>
</svg>