<svg t="1721701871444" class="icon" viewBox="0 0 1024 1024" version="1.1" xmlns="http://www.w3.org/2000/svg"
    p-id="20493" width="200" height="200">
    <path
        d="M170.898508 51.481099s-303.673264 552.133958 153.37834 929.441869c0 0 582.819533-15.346915 653.370763-653.383146 0 0-297.535324-88.94854-374.224494-269.929038-0.012383 0.008255-242.34752 110.433396-432.524609-6.129685z"
        fill="#F0F0FF" p-id="20494"></path>
    <path
        d="M197.92691 128.145503c179.205572 88.077589 391.878812-16.151823 391.878812-16.151824 72.268367 180.97637 387.837761 259.758302 387.837761 259.758302-1.510751 14.488346-3.35172 28.543281-5.345415 42.395956a992.497134 992.497134 0 0 0 13.382113-86.603987s-297.535324-88.94854-374.224494-269.929039c-0.008255 0.004128-242.343392 110.429268-432.520481-6.133812 0 0-259.485871 471.837148 62.361805 841.21981C-11.823894 536.993429 197.92691 128.145503 197.92691 128.145503z"
        fill="#FFFFFF" p-id="20495"></path>
    <path
        d="M821.53671 626.854199m-21.959545 0a21.959545 21.959545 0 1 0 43.91909 0 21.959545 21.959545 0 1 0-43.91909 0Z"
        fill="#6E6E96" p-id="20496"></path>
    <path
        d="M197.92691 149.485888m-21.340385 0a21.340385 21.340385 0 1 0 42.68077 0 21.340385 21.340385 0 1 0-42.68077 0Z"
        fill="#6E6E96" p-id="20497"></path>
    <path
        d="M128.114545 409.223551m-21.340385 0a21.340385 21.340385 0 1 0 42.680769 0 21.340385 21.340385 0 1 0-42.680769 0Z"
        fill="#6E6E96" p-id="20498"></path>
    <path
        d="M165.090786 683.647691m-21.332129 0a21.332129 21.332129 0 1 0 42.664258 0 21.332129 21.332129 0 1 0-42.664258 0Z"
        fill="#6E6E96" p-id="20499"></path>
    <path
        d="M345.142544 918.705633m-21.336257 0a21.336257 21.336257 0 1 0 42.672514 0 21.336257 21.336257 0 1 0-42.672514 0Z"
        fill="#6E6E96" p-id="20500"></path>
    <path
        d="M902.118334 366.006175m-21.336257 0a21.336257 21.336257 0 1 0 42.672514 0 21.336257 21.336257 0 1 0-42.672514 0Z"
        fill="#6E6E96" p-id="20501"></path>
    <path
        d="M572.333024 128.228057m-21.332129 0a21.332129 21.332129 0 1 0 42.664259 0 21.332129 21.332129 0 1 0-42.664259 0Z"
        fill="#6E6E96" p-id="20502"></path>
    <path
        d="M242.828401 199.66675S30.307887 584.140407 365.983473 861.243448c0 0 380.436734-44.843702 479.84908-465.831295 0 0-232.540024-79.359814-288.858827-212.268722-0.004128 0.004128-150.893445 78.546651-314.145325 16.523319z"
        fill="#FFA8BA" p-id="20503"></path>
    <path
        d="M845.824297 381.402623s-232.535896-65.346157-288.854699-198.250937c0 0-175.80432 299.277227-190.994381 678.091762 0 0 396.204678-43.085288 479.84908-479.840825z"
        fill="#DB919F" p-id="20504"></path>
    <path
        d="M632.651602 817.204653m-21.959545 0a21.959545 21.959545 0 1 0 43.919089 0 21.959545 21.959545 0 1 0-43.919089 0Z"
        fill="#6E6E96" p-id="20505"></path>
    <path
        d="M324.276848 997.438032a16.510936 16.510936 0 0 1-10.50921-3.776877C207.123501 905.624844 132.465176 800.718484 91.868912 681.860383c-32.452245-95.003926-43.254525-198.903119-32.101387-308.812293 18.90915-186.400213 93.497303-323.767073 96.663275-329.521135a16.510936 16.510936 0 0 1 23.094672-6.117302c55.224953 33.847419 120.835286 51.010537 194.998283 51.010537 119.621732 0 221.060795-45.37618 222.07209-45.834358a16.523319 16.523319 0 0 1 22.025589 8.59807c72.821484 171.829312 360.854763 259.675747 363.75656 260.542571a16.510936 16.510936 0 0 1 11.681487 17.63368c-16.403615 148.350761-61.750901 275.860592-134.787026 378.992027-58.597312 82.740428-134.939753 149.9193-226.909795 199.670877-156.201711 84.498843-301.539226 89.249865-307.648272 89.410847l-0.43754 0.004128zM177.750546 74.517982C158.247003 114.862455 107.063101 232.061207 92.508711 377.485404c-10.505083 104.976532-0.136215 204.000871 30.82179 294.323946 38.012303 110.89983 107.490322 209.218326 206.539427 292.293102 28.778562-1.882247 155.958174-14.021912 287.958981-85.757802 87.198381-47.390514 159.528664-111.238304 214.984771-189.768444 67.282065-95.280484 109.929812-212.792944 126.853521-349.437451-58.275349-19.371456-286.695894-103.833149-364.590362-260.204097-33.909335 13.221132-120.331702 42.503277-220.548957 42.503277-73.597498 0-139.69903-15.772072-196.777336-46.919953z"
        fill="#6E6E96" p-id="20506"></path>
    <path
        d="M611.459815 57.614911s-2.765582 1.254831-7.879844 3.347593c15.049718 27.474198 35.246721 52.488266 58.304243 75.071098-20.911101-23.883069-38.387926-50.015753-50.424399-78.418691z m327.931957 253.735938C865.270052 902.182314 331.599449 916.621127 331.599449 916.621127-38.91834 604.539669 126.13736 166.85952 175.975621 57.115456c-30.231524 58.923403-273.75132 568.76047 156.337926 923.807512 0 0 582.811277-15.346915 653.370762-653.383146 0 0.004128-18.013431-5.386693-46.292537-16.188973z"
        fill="#6E6E96" opacity=".15" p-id="20507"></path>
    <path
        d="M369.624134 853.962125S114.608599 586.662453 271.33866 253.104395c0 0 200.781238 44.203904 289.2716-77.242287 0 0-156.977725 80.759116-319.573296 27.193512 0 0-191.089319 383.701771 128.58717 650.906505z"
        fill="#FFCFD9" p-id="20508"></path>
    <path
        d="M369.624134 870.473061c-3.818154 0-7.537242-1.320875-10.50921-3.776877-178.920759-147.698579-203.922444-325.608043-193.396722-448.845669 11.343013-132.735543 64.06656-229.407074 66.303791-233.456381a16.519192 16.519192 0 0 1 20.316707-7.446432c39.774845 15.115762 82.389571 22.776836 126.655391 22.776836 98.363902 0 173.286402-38.136135 174.033521-38.520014a16.519192 16.519192 0 0 1 22.785092 8.222447c52.768952 124.513097 276.743927 202.312627 279.001798 203.084513a16.519192 16.519192 0 0 1 10.732108 19.420989c-52.690525 223.108151-183.981361 341.314071-284.850797 401.186852-109.294141 64.879723-205.111231 76.771725-209.139899 77.246415a17.823555 17.823555 0 0 1-1.93178 0.107321zM254.683253 212.842477c-14.112723 29.690791-47.873459 109.537678-56.157821 208.991301-13.745354 164.940124 45.462862 304.424512 175.977684 414.688671 23.329953-3.933731 103.234628-20.411645 190.544458-72.524287 134.138972-80.061529 223.194834-202.960682 264.856053-365.428293-50.490443-19.165069-218.204403-89.703916-277.185595-200.94222-28.485492 12.052983-93.48492 35.114633-173.719814 35.114634-43.126565 0.004128-84.870339-6.686929-124.314965-19.899806z"
        fill="#6E6E96" p-id="20509"></path>
</svg>