<svg t="1721807674993" class="icon" viewBox="0 0 1024 1024" version="1.1" xmlns="http://www.w3.org/2000/svg"
    p-id="21566" width="200" height="200">
    <path
        d="M736.210638 413.609393c-62.294523 8.948726-117.311243 42.680763-154.921474 94.974496-31.174079 43.33263-46.212395 94.116343-46.212395 144.495733 0 73.665058 32.156004 146.488465 93.084908 193.95921 45.960725 35.811409 98.32047 50.701198 151.426974 43.068582 59.435386-8.540278 114.868806-44.784889 156.068429-102.083143 81.945415-113.928138 70.413976-251.962965-27.419657-328.218987-49.562494-38.608659-110.652302-55.012595-172.026785-46.195891z"
        fill="#62BACF" p-id="21567"></path>
    <path
        d="M768.387271 394.812529h-0.045383c-38.167205 0.004126-76.408674 9.196271-110.582164 26.60276a247.412276 247.412276 0 0 0-48.733221 32.651093 255.795776 255.795776 0 0 0-41.141862 44.879782 260.965326 260.965326 0 0 0-42.239309 92.560939 266.935269 266.935269 0 0 0-4.707468 98.526757c4.571318 33.100799 15.075448 64.493541 31.215336 93.299446a254.318762 254.318762 0 0 0 65.838532 76.718105c20.56268 16.036745 42.623003 28.290188 65.545605 36.446772 22.456394 7.995681 45.725558 12.04303 69.159752 12.04303 74.09826 0 145.671569-40.415733 196.352138-110.883343 40.14756-55.825365 60.371929-120.921264 56.910434-183.273548-1.807073-32.54795-9.934778-63.25582-24.152072-91.273709-14.980556-29.50728-36.323-55.190002-63.433227-76.317907l-0.004125-0.004126h-0.004126c-21.977808-17.117688-46.261904-30.278794-72.175666-39.095496a240.967872 240.967872 0 0 0-77.803174-12.880555z m-0.016502 33.005906h0.255795c44.215538 0.053635 88.769386 14.143031 127.134627 43.233612l0.08664 0.074263c0.742633 0.5611 1.477014 1.126327 2.215522 1.70393 51.472711 40.110428 75.315353 96.513397 75.249341 155.589844-0.066012 50.911611-17.876824 103.803576-51.080766 149.970588-44.512591 61.894326-106.22951 97.14876-169.555468 97.14876-38.732431 0-78.046592-13.173482-114.406724-41.513179-56.898057-44.335184-86.900426-112.187076-86.871546-180.888871 0.037132-47.004537 14.118277-94.392767 43.254241-134.915769 42.565242-59.167213 107.714776-90.394927 173.672954-90.399052l0.045384-0.004126z"
        fill="#6E6E96" p-id="21568"></path>
    <path
        d="M848.826792 444.965004s89.648168 29.631053 65.912795 157.991023c-23.739498 128.364096-65.087648 214.691045-246.257069 250.791255l-30.17565-19.741657s193.212451-11.638708 242.477893-191.553905c40.642648-148.382179-31.957969-197.486716-31.957969-197.486716z"
        fill="#62BACF" p-id="21569"></path>
    <path
        d="M898.088107 472.821989c-95.828524-74.663486-231.664333-54.340099-303.406796 45.387247-0.25167 0.338311-0.44558 0.684873-0.688998 1.023183 73.421639 154.587289 200.217955 245.559819 306.072023 209.315208 25.492937-8.717685 47.701786-24.197455 66.416135-44.941667 18.978396-77.807299-0.990177-158.267448-68.392364-210.783971z"
        fill="#6ECFE6" p-id="21570"></path>
    <path
        d="M582.139066 107.491986c75.071935 162.58297 86.937558 306.744518 35.275063 428.474428-77.613389 182.873351-275.075351 253.510117-277.05158 254.203241l10.7558 31.198833c110.495524-37.812392 176.631109-24.72555 234.9773-13.173482 42.961313 8.507272 80.059952 15.851087 123.219301-0.185659 99.913005-37.144022 121.127551-83.748362 145.688072-137.696516 23.549714-51.749136 50.04108-162.533461-18.289398-211.39458-66.350124-47.441865-99.917131-136.136987-100.24719-137.024021-71.057591-207.140944-124.296118-233.780836-134.243273-237.01129l-35.914553-11.671713 15.830458 34.280759z"
        fill="#6ECFE6" p-id="21571"></path>
    <path
        d="M535.493469 45.841078l31.660916 68.569771c72.976059 158.052909 84.821054 297.618385 35.184296 414.82236-16.985665 40.106302-41.352275 77.832053-72.439713 112.145819-25.195884 27.819854-54.868194 53.498449-88.171154 76.317908-57.455032 39.367795-106.340905 56.724776-106.835994 56.898057l0.049509-0.016503 21.499223 62.410043c47.408859-16.222403 90.597088-24.110815 132.040129-24.110814 32.88626 0 60.677233 4.901377 86.331074 9.910023l8.012184 1.588409c24.845196 4.909629 48.316521 9.55521 72.934802 9.55521 20.942248 0 40.329092-3.420237 59.28686-10.462872 48.035971-17.85207 82.131073-39.103748 107.355837-66.861715 22.943231-25.261896 35.48135-52.821828 47.61102-79.474098 7.15403-15.73144 13.375644-33.521624 17.963464-51.443831 5.412969-21.086649 8.420632-41.575065 8.96523-60.900023 1.501769-53.28391-16.007865-94.545419-50.631061-119.308101-60.347174-43.146971-92.280389-123.912425-94.289623-129.110855-30.893529-89.986479-62.269768-157.405168-93.233435-200.407739-24.5894-34.148736-42.804535-43.976245-51.468586-46.789998l-71.824978-23.331051z m129.944254 330.545903c-0.004126-78.756219-19.556-170.207334-68.326352-275.822109 0 0 51.74501 16.816509 123.867041 227.060008 0 0 34.639699 93.604751 106.118116 144.706146 27.291759 19.514742 36.892352 51.885285 36.925358 86.038147 0.037132 37.816517-11.651085 77.836179-24.05718 105.099058-23.6116 51.868782-42.932433 94.306127-136.409286 129.061346-16.42869 6.101967-32.085867 8.395877-47.792553 8.395878-23.801384 0-47.701786-5.256191-74.622229-10.53301-26.908065-5.260316-56.836171-10.528884-92.659957-10.537136-39.239897 0-85.538933 6.316505-142.725792 25.880757 0.012377 0.02888 319.703463-110.833834 319.682834-429.349085z m86.524984-60.173893a1.45226 1.45226 0 0 0-0.037131-0.090766l0.020628 0.05776 0.016503 0.033006z"
        fill="#6E6E96" p-id="21572"></path>
    <path
        d="M595.741626 610.555637c-73.190598 109.83128-183.851151 166.948001-229.341542 186.867066l-2.137133 2.343419c181.928557-55.520061 248.819152 26.388222 339.30072-7.236545 68.903956-25.620835 97.515951-55.425169 117.245232-90.106125-96.282355-73.995117-170.166077-94.867227-225.067277-91.867815z"
        fill="#62BACF" p-id="21573"></path>
    <path
        d="M569.922755 971.512357c-11.354032 19.646766-39.206891 35.7619-61.898452 35.811409l-89.763688 0.177406c-22.691561 0.049509-30.95954-15.368375-18.371913-34.247753l135.996712-204.001257c12.587628-18.879379 39.178011-25.426925 59.09295-14.551479l39.970153 21.833407a40.184691 40.184691 0 0 1 15.566411 55.495306l-80.592173 139.482961z"
        fill="#B8B8DB" p-id="21574"></path>
    <path
        d="M418.153345 1024c-17.051676 0-30.489206-6.832223-36.867597-18.755606-6.386643-11.931635-4.612575-26.928694 4.868371-41.150114l135.996712-204.001257c11.168374-16.754623 31.025552-27.159735 51.819274-27.159736 10.202951 0 20.199615 2.5167 28.917299 7.277803l39.970153 21.833407c13.569553 7.413952 23.33105 19.663269 27.49392 34.491172 4.158744 14.827904 2.186641 30.361308-5.549118 43.749329l-80.592172 139.482961c-14.246174 24.647161-47.697661 43.996873-76.152878 44.05876l-89.903964 0.173281z m-7.649118-34.392155c0.874657 0.515717 3.267585 1.386248 7.649118 1.386248v16.502954l0.074264-16.502954 89.763688-0.177406c16.915527-0.037132 39.178011-12.917687 47.644026-27.568184l80.592173-139.482961a23.586846 23.586846 0 0 0 2.343419-18.318278 23.6116 23.6116 0 0 0-11.535564-14.435959l-39.970153-21.833407c-3.878194-2.120629-8.408255-3.238705-13.099219-3.238704-9.897646 0-19.230066 4.773479-24.354233 12.463855l-135.996713 204.001257c-2.450689 3.684284-3.057172 6.184482-3.110806 7.203539z"
        fill="#6E6E96" p-id="21575"></path>
    <path
        d="M423.591068 984.817863c-12.463855 18.966019-36.566419 22.184095-53.568586 7.149905l-5.00452-4.41454c-17.002168-15.030065-20.33989-42.585871-7.418078-61.24246l131.62343-190.015004c12.921812-18.652463 39.239897-24.845196 58.486466-13.77584 19.246569 11.081733 24.799813 35.667008 12.335958 54.620649l-136.45467 207.67729z"
        fill="#D7D7F7" p-id="21576"></path>
    <path
        d="M394.059034 1017.93929c-12.624759 0-25.043232-4.83124-34.969758-13.606685l-4.992144-4.406288c-23.112386-20.42653-27.621818-57.665445-10.062676-83.009855l131.62343-190.015004c11.440672-16.519456 30.509835-26.379971 51.006503-26.379971 10.400986 0 20.525548 2.665227 29.272113 7.694502 13.152854 7.57073 22.311993 19.795292 25.789991 34.42516 3.552261 14.94755 0.75501 30.419069-7.888412 43.567797l-136.454669 207.669039c-9.905898 15.071322-26.099421 24.061306-43.324378 24.061305z m132.605355-284.407771c-9.530456 0-18.677217 4.662084-23.875648 12.166803l-131.623429 190.010878c-8.210219 11.853246-6.019452 29.932232 4.78173 39.47919l4.992144 4.406288c3.956583 3.498626 8.486644 5.338705 13.119848 5.338706 6.167979 0 11.906881-3.3501 15.739691-9.183894l136.45467-207.669038c3.597644-5.474855 4.789982-11.79136 3.358351-17.802561-1.353242-5.689393-4.950886-10.466998-10.141065-13.454033-3.737919-2.153635-8.168962-3.292339-12.806292-3.292339z"
        fill="#6E6E96" p-id="21577"></path>
    <path
        d="M329.982192 34.466418c-104.108881 37.152274-194.631705 126.119695-248.32819 244.099308C-13.143087 486.816493 39.142394 720.048606 198.197858 798.495395c64.906115 32.003352 138.707322 34.825357 213.395563 8.177213 104.117132-37.156399 194.631705-126.127946 248.332316-244.103433 94.792964-208.263145 42.503356-441.487006-116.564485-519.929669-64.90199-31.999226-138.690819-34.829483-213.37906-8.173088z"
        fill="#62BACF" p-id="21578"></path>
    <path
        d="M430.134489 0h-0.02888c-35.440092 0-71.507297 6.551672-107.194933 19.477611-34.804728 12.600005-68.611028 31.025552-100.478231 54.760924C157.183894 122.839733 103.305877 191.133079 66.623937 271.729377 42.892691 323.870458 27.569698 378.30545 21.088164 433.520206c-6.291751 53.692359-4.030846 105.936583 6.753833 155.284539 10.937332 50.111218 30.122015 94.792964 56.997075 132.799265 28.38508 40.135182 64.06859 70.983328 106.060355 91.694534 37.469955 18.479182 78.030089 27.848734 120.5582 27.848734 35.444218 0 71.511422-6.551672 107.194933-19.473485 34.81298-12.600005 68.611028-31.029678 100.482357-54.769177 65.236174-48.592946 119.122443-116.890418 155.812633-197.490842 23.735373-52.145207 39.054239-106.576072 45.535774-161.799079 6.300002-53.692359 4.034972-105.936583-6.749708-155.280413-10.945584-50.102966-30.134393-94.784712-57.009452-132.799266-28.38508-40.139308-64.064465-70.983328-106.060355-91.694534l-0.004126-0.004126C513.181476 9.365426 472.629594 0 430.134489 0z m0.004126 33.005907h0.214539c34.911998 0.02888 69.271146 7.277802 101.662318 22.485273 0.107269 0.05776 0.235167 0.111395 0.350687 0.169156 1.241847 0.585855 2.479569 1.179961 3.700788 1.79057 99.640706 49.137543 154.814205 162.578844 154.863713 291.578305 0.024754 66.981362-14.819652 138.162725-46.018485 206.715992-71.012208 155.998292-205.816582 252.404419-333.450423 252.404419-36.467401 0-72.320067-7.855406-105.961337-24.444999-99.632455-49.137543-154.801828-162.58297-154.855462-291.578304-0.020629-66.985487 14.823778-138.166851 46.022611-206.715993C167.663269 129.412034 302.471769 33.010032 430.109735 33.005907h0.02888z"
        fill="#6E6E96" p-id="21579"></path>
    <path
        d="M604.170509 529.827315c-88.690997 194.870998-270.54529 295.951587-410.238664 227.084763-139.676871-68.883327-184.296731-281.622898-95.585106-476.506273 88.695122-194.87925 274.95983-293.624671 414.636702-224.753721 139.680997 68.875076 179.890442 279.291856 91.187068 474.175231z"
        fill="#6ECFE6" p-id="21580"></path>
    <path
        d="M512.690513 484.654606c-69.118494 151.839547-205.383379 235.377497-304.355716 186.590642-98.964085-48.81161-123.169792-211.468843-54.063675-363.320768 69.118494-151.851925 205.383379-235.394 304.359842-186.590642 98.972337 48.799233 123.173918 211.464718 54.059549 363.320768z"
        fill="#7296B0" p-id="21581"></path>
    <path
        d="M405.49558 628.840909c41.929879-34.730465 79.833037-84.082547 107.182556-144.182177 69.114368-151.860176 44.916913-314.521535-54.055423-363.324894-70.21594-34.61907-159.166859-2.582712-229.622092 73.136964 1.5389 0.684873 226.544291 101.889234 176.494959 434.370107z"
        fill="#6E6E96" opacity=".24" p-id="21582"></path>
    <path
        d="M248.767033 403.435322s-10.260711 125.232661 101.5633 261.501672c0 0 31.504138-15.834584 55.169373-36.091959L248.767033 403.435322z"
        fill="#6E6E96" opacity=".22" p-id="21583"></path>
    <path
        d="M551.996422 306.868291s-120.719103-20.05934-203.902239-9.658354c-49.921434 6.250494-69.976648 23.104135-88.080388 62.843246-56.444226 124.015568 145.48591 268.7836 145.485911 268.783601s130.98394-87.997873 146.496716-321.968493z"
        fill="#E6E6FF" opacity=".66" p-id="21584"></path>
    <path
        d="M505.231178 498.413944c22.54716-48.242258 47.421236-102.776267 46.765244-191.549779 0 0-120.719103-20.05934-203.902239-9.658354-49.871925 6.242242-69.943642 23.075254-88.018501 62.75248 0.202161 0.255796 131.598675 78.752093 245.155496 138.455653z"
        fill="#E6E6FF" opacity=".66" p-id="21585"></path>
    <path
        d="M368.35981 413.349471c-20.579183 45.201589-61.502381 69.890007-91.397481 55.144618-29.907477-14.741263-37.461704-63.346586-16.899025-108.544049 20.575057-45.197463 61.49413-69.890007 91.397481-55.148744 29.907477 14.741263 37.469955 63.346586 16.899025 108.548175z"
        fill="#FFFFFF" p-id="21586"></path>
    <path
        d="M295.594163 489.263056c-9.175642 0-17.901579-2.009235-25.934391-5.969943-38.402372-18.928887-49.220058-76.111621-24.618281-130.179422 18.813367-41.323395 54.092555-69.081362 87.791586-69.081362 9.171516 0 17.893327 2.005109 25.926139 5.965818 38.410624 18.937139 49.224184 76.119872 24.622407 130.187672-18.813367 41.319269-54.092555 69.077237-87.78746 69.077237z m37.238914-172.22482c-20.665823 0-44.413573 20.455411-57.747959 49.748152-16.59372 36.475653-12.393718 76.272524 9.175642 86.904552a25.373291 25.373291 0 0 0 11.337529 2.56621c20.665823 0 44.409447-20.455411 57.747959-49.748153 16.597845-36.471527 12.393718-76.272524-9.175642-86.904552a25.402171 25.402171 0 0 0-11.337529-2.566209z"
        fill="#6E6E96" p-id="21587"></path>
    <path
        d="M568.227077 586.663486a16.490576 16.490576 0 0 1-12.892932-26.784293c34.81298-43.695695 48.778604-114.980201 48.914753-115.693954a16.507079 16.507079 0 0 1 32.424178 6.184482c-0.614735 3.238705-15.562285 79.923803-55.528313 130.076278a16.45757 16.45757 0 0 1-12.917686 6.217487z"
        fill="#FFFFFF" p-id="21588"></path>
    <path
        d="M336.447224 456.075617s76.309656 78.98726 128.595137 110.738942c0 0-32.222016 42.053651-59.538529 62.030476 0 0-102.854656-63.082539-148.538957-180.389657-0.008251 0 55.40454 14.118277 79.482349 7.620239z"
        fill="#6E6E96" opacity=".21" p-id="21589"></path>
    <path
        d="M269.185312 701.668442c-24.189204 0-47.120057-5.252065-68.148946-15.620045-52.867211-26.074666-88.055633-81.260542-99.087857-155.395934-10.673285-71.730086 2.574461-153.258801 37.3008-229.564332 57.223991-125.719498 161.110081-210.185739 258.514638-210.185739 24.197455 0 47.128309 5.256191 68.161322 15.632423 52.867211 26.066415 88.051507 81.248165 99.083732 155.387682 10.673285 71.734212-2.574461 153.262927-37.304926 229.572584-57.219865 125.711247-161.114207 210.173362-258.518763 210.173361zM397.768072 123.908299c-83.37292 0-177.324233 78.479794-228.471011 190.852529-65.343444 143.571568-44.553848 296.850998 46.340293 341.685396 16.445193 8.107076 34.466418 12.216311 53.547958 12.216312 83.377046 0 177.332485-78.475669 228.483388-190.844278 65.351695-143.583945 44.566225-296.863375-46.336167-341.681271-16.453444-8.115327-34.474669-12.228688-53.564461-12.228688z"
        fill="#6E6E96" p-id="21590"></path>
    <path
        d="M405.194401 648.920878l-9.307665-6.671319c-8.692931-6.233991-212.244482-154.220098-150.890628-289.032724 21.305313-46.76937 47.74717-65.710634 101.047583-72.381953 16.556588-2.066995 35.671134-3.119058 56.819668-3.119058 73.516531 0 148.67098 12.348335 151.835422 12.872303l14.75364 2.450689-0.990177 14.922795c-15.86759 239.3052-148.134634 330.797573-153.762142 334.57675l-9.505701 6.382517z m-2.326916-338.199148c-19.782915 0-37.52359 0.961297-52.72281 2.863263-46.41043 5.80904-60.153265 20.476039-75.109066 53.308664-14.122402 31.029678-17.055802 84.577636 49.195303 163.441124 30.410817 36.199228 64.654445 64.745211 81.074884 77.629892 28.125158-24.139695 113.028727-110.693559 129.036592-287.052369-25.484686-3.577015-79.618498-10.190574-131.474903-10.190574z"
        fill="#6E6E96" p-id="21591"></path>
</svg>