<svg t="1721704688686" class="icon" viewBox="0 0 1061 1024" version="1.1" xmlns="http://www.w3.org/2000/svg"
    p-id="21215" width="200" height="200">
    <path d="M234.949295 833.435735a267.787174 164.030515 0 1 0 535.574349 0 267.787174 164.030515 0 1 0-535.574349 0Z"
        fill="#A19388" p-id="21216"></path>
    <path
        d="M502.736469 1014.190405c-74.568827 0-144.918986-17.936657-198.089257-50.506949-55.729066-34.134001-86.422072-80.393014-86.422072-130.247721s30.693006-96.109539 86.422072-130.24354c53.170271-32.570292 123.52043-50.506949 198.089257-50.506949s144.918986 17.936657 198.089258 50.506949c55.729066 34.134001 86.422072 80.393014 86.422072 130.24354 0 49.858888-30.693006 96.11372-86.422072 130.247721-53.170271 32.570292-123.516249 50.506949-198.089258 50.506949z m0-328.06103c-68.489597 0-132.635094 16.184801-180.620876 45.577504-45.426987 27.824813-70.446323 63.95317-70.446323 101.724675 0 37.775686 25.015155 73.904042 70.446323 101.728855 47.985783 29.388522 112.13128 45.577504 180.620876 45.577504 68.485416 0 132.630913-16.188982 180.620877-45.577504 45.426987-27.824813 70.446323-63.957351 70.446323-101.728855s-25.015155-73.899861-70.446323-101.724675c-47.989964-29.392703-112.13128-45.577504-180.620877-45.577504z"
        fill="#6E6E96" p-id="21217"></path>
    <path
        d="M943.718996 817.765201c0-58.739414-8.600397-185.403985-116.696975-251.857416-76.245424-46.877807-192.599553-6.522421-296.042634-6.522421-103.451443 0-219.805573-40.359568-296.055178 6.51824-108.109121 66.461793-116.701155 193.122183-116.701155 251.861597 0 61.770667-17.82795 138.940101 100.010448 171.681816 73.180722 20.328211 172.793972-126.748192 268.61502-126.748192 95.816867 0 239.552619 163.135773 312.733341 142.790838 117.834217-32.737534 144.137132-125.953794 144.137133-187.724462z"
        fill="#BAAB9D" p-id="21218"></path>
    <path
        d="M785.997668 1009.336219c-37.194521-0.004181-86.530779-33.080379-138.764497-68.096579-56.06355-37.583358-114.033653-76.450295-160.380468-76.450295-46.643669 0-94.052468 35.2587-139.897559 69.355072-41.020172 30.50904-79.761678 59.320579-114.200894 59.320578-5.213755 0-10.285355-0.673147-15.072645-2.002717-105.943343-29.434513-103.852823-94.579279-102.008985-152.05602 0.2425-7.513327 0.468276-14.60855 0.468276-21.641057 0-118.599347 40.698232-206.309179 117.696243-253.64272 25.500156-15.678896 56.874671-22.978989 98.743594-22.978989 30.922963 0 64.551058 4.038883 97.071178 7.943974 33.603009 4.034702 68.343261 8.207379 101.335838 8.207379 32.988396 0 67.728648-4.172677 101.323294-8.207379 32.515939-3.90509 66.144034-7.939793 97.066998-7.939793 41.873104 0 73.2518 7.300094 98.747774 22.978989 76.998011 47.33354 117.692062 135.043373 117.692062 253.638539 0 44.879271-14.194627 153.214167-145.671573 189.739723-4.377548 1.212501-9.13557 1.831295-14.148636 1.831295z m-299.149146-148.727913c47.617851 0 106.127308 39.226506 162.709307 77.15689 51.690183 34.65245 100.516354 67.385803 136.435658 67.389984h0.004181a48.792723 48.792723 0 0 0 13.023936-1.676597c128.71328-35.760425 142.606872-141.787388 142.606872-185.713382 0-118.737321-38.929652-202.876547-115.701887-250.076293-24.814465-15.25243-55.494928-22.360196-96.561091-22.360196-30.672101 0-62.677953 3.842375-96.569454 7.914706-33.715897 4.051427-68.577399 8.236646-101.820838 8.236647s-68.113303-4.189401-101.833382-8.240828c-33.891501-4.068151-65.901534-7.914706-96.573634-7.914706-41.061982 0-71.742445 7.103585-96.55273 22.360195-76.776416 47.199747-115.706068 131.338972-115.706068 250.080475 0 7.095223-0.229957 14.223894-0.472457 21.77485-1.793666 55.938118-3.829832 119.33521 98.952645 147.895887 4.42772 1.229225 9.123027 1.848019 13.956308 1.848019 33.059474 0 71.261626-28.41434 111.708995-58.492733 46.392807-34.506113 94.361865-70.182918 142.393639-70.182918z"
        fill="#6E6E96" p-id="21219"></path>
    <path
        d="M785.997668 1023.969855h-0.008362c-41.638966-0.004181-92.768889-34.284518-146.909161-70.575936-54.244798-36.366676-110.337614-73.970939-152.231623-73.970938-40.326119 0-85.443709 34.807148-129.072849 68.468691-42.036164 32.428137-81.739309 63.062608-119.000727 63.062609-9.996864 0-19.441831-2.21177-28.084038-6.576774-71.688092-36.211977-109.19201-121.287755-109.19201-186.612306 0-86.434615 21.628514-202.76784 124.666035-266.106396 27.904253-17.158983 61.716314-25.148948 106.407438-25.148949 31.7968 0 65.868086 4.093237 98.818852 8.0485 33.172362 3.98453 67.473604 8.102853 99.588164 8.102853s66.411621-4.118323 99.579801-8.102853c32.946586-3.955263 67.009509-8.0485 98.810491-8.0485 44.691124 0 78.507366 7.989965 106.411619 25.148949 103.037521 63.338557 124.661853 179.671781 124.661853 266.106396 0 37.625168-11.276262 163.524609-156.387576 203.842367a67.716105 67.716105 0 0 1-18.057907 2.362287z m-299.149146-177.995185c52.070657 0 112.457401 40.484999 170.858151 79.636247 47.601127 31.913869 96.820316 64.906447 128.286814 64.910627h0.004181c3.311383 0 6.371903-0.384656 9.106303-1.141423 119.042537-33.072017 131.895051-131.033757 131.89505-171.61492 0-113.314514-36.58409-193.255976-108.732095-237.612617-22.406187-13.776523-50.653285-20.190236-88.897247-20.190236-29.798264 0-61.381831 3.792202-94.82178 7.805999-34.146544 4.101599-69.451236 8.341172-103.568512 8.341173s-69.42615-4.243754-103.576875-8.341173c-33.44413-4.017978-65.031878-7.810181-94.830141-7.81018-38.239781 0-66.482698 6.413714-88.888886 20.190236-72.152187 44.356641-108.736277 124.298103-108.736276 237.616798 0 55.09773 31.198912 126.635304 90.828887 156.755508 3.971987 2.006899 8.224103 2.985262 12.99885 2.985261 25.859725 0 62.824289-28.518866 98.572171-56.096997 48.065222-37.089995 97.773593-75.434302 149.501405-75.434303z"
        fill="#6E6E96" p-id="21220"></path>
    <path
        d="M858.881537 485.10921c0-17.213337-8.763457-33.615552-24.500887-48.604576 29.597574-20.077348 46.539143-43.344829 46.539143-68.163476 0-75.543009-156.939473-136.786866-350.521571-136.786866-193.59464 0-350.529932 61.235495-350.529932 136.786866 0 24.818646 16.937388 48.090308 46.543324 68.163476-15.754154 14.989024-24.500887 31.387058-24.500887 48.604576 0 20.110797 11.899236 39.134523 33.051111 56.080273-21.156056 16.958293-33.051112 35.965296-33.051111 56.080274 0 70.801711 147.06804 128.19065 328.491676 128.19065 181.411093 0 328.487496-57.401482 328.487496-128.19065 0-20.12334-11.907599-39.12198-33.055293-56.080274 21.151875-16.937388 33.046931-35.969477 33.046931-56.080273z"
        fill="#C2B2A4" p-id="21221"></path>
    <path
        d="M530.402403 742.184563c-89.775265 0-174.424577-13.738894-238.361023-38.691334-68.907701-26.892442-106.854809-64.613774-106.854809-106.223472 0-19.571443 8.600397-38.699695 25.056966-56.076092-16.46075-17.376397-25.056966-36.50465-25.056966-56.084455 0-16.10118 5.581687-31.579386 16.627992-46.196298-31.529214-26.424165-38.670428-52.438589-38.670428-70.567573 0-43.905089 40.242499-83.792199 113.310333-112.302703 68.096579-26.570502 158.281587-41.204138 253.943754-41.204137 95.653806 0 185.834632 14.633636 253.931212 41.208318 73.072015 28.514685 113.314514 68.397614 113.314514 112.302703 0 18.124803-7.141214 44.139227-38.670428 70.567573 11.054667 14.629455 16.636353 30.107661 16.636353 46.196298 0 19.583986-8.596216 38.712238-25.044422 56.080274 20.32403 21.448729 25.052785 41.802026 25.052784 56.080273 0 41.605517-37.951289 79.331031-106.863171 106.219291-63.936446 24.95244-148.585757 38.691333-238.352661 38.691334z m-0.004181-493.906116c-91.602379 0-177.468374 13.822514-241.785293 38.917109C230.132739 310.019847 196.592445 339.596516 196.592445 368.341158c0 22.928817 21.319117 42.195044 39.20142 54.320056l17.18407 11.652555-15.039197 14.307515c-12.810703 12.187728-19.303856 24.463258-19.303856 36.487926 0 14.311696 9.010139 28.790633 26.783735 43.02707l16.289327 13.049022-16.285146 13.053204c-17.773596 14.244799-26.787916 28.723737-26.787916 43.031251 0 52.722899 128.040133 111.466495 311.767521 111.466495 85.707115 0 166.037414-12.927772 226.1942-36.404305 54.382772-21.222953 85.573321-48.57949 85.573322-75.06219 0-14.299153-9.01432-28.77809-26.792097-43.031251l-16.289327-13.057385 16.293508-13.044841c12.216995-9.783631 26.775373-25.186578 26.775373-43.02707 0-12.012125-6.497334-24.291836-19.312219-36.492107l-15.022472-14.307515 17.167345-11.648374c17.882303-12.129194 39.20142-31.399602 39.20142-54.320056 0-28.744642-33.540293-58.32131-92.024664-81.141421-64.312739-25.098776-150.174552-38.92129-241.76857-38.92129z"
        fill="#6E6E96" p-id="21222"></path>
    <path
        d="M858.881537 313.686618c0-17.213337-8.763457-33.611371-24.500887-48.604576 29.597574-20.077348 46.539143-43.344829 46.539143-68.163476 0-75.543009-168.324442-118.227235-361.906539-118.227234-193.59464 0-339.144964 42.680044-339.144964 118.227234 0 24.818646 16.937388 48.090308 46.543324 68.163476-15.758335 14.993205-24.505069 31.391239-24.505068 48.604576 0 20.110797 11.899236 39.134523 33.055292 56.080274-21.156056 16.958293-33.055293 35.965296-33.055292 56.080274 0 70.801711 147.06804 128.19065 328.491676 128.19065 181.415274 0 328.483315-57.401482 328.483315-128.19065 0-20.12334-11.899236-39.12198-33.051112-56.080274 21.156056-16.937388 33.051112-35.969477 33.051112-56.080274z"
        fill="#D6C5B5" p-id="21223"></path>
    <path
        d="M530.398222 570.761971c-89.775265 0-174.424577-13.738894-238.361023-38.691333-68.907701-26.888261-106.854809-64.613774-106.854809-106.223472 0-19.571443 8.600397-38.695514 25.061147-56.076093-16.46075-17.376397-25.061147-36.50465-25.061147-56.084455 0-16.10118 5.581687-31.579386 16.627992-46.196298-31.529214-26.424165-38.666247-52.438589-38.666247-70.567573 0-99.500362 183.831915-134.95139 355.869119-134.95139 99.684327 0 191.45813 11.18846 258.404923 31.508309 99.37075 30.153652 120.225771 72.900593 120.225771 103.447262 0 18.124803-7.141214 44.139227-38.670428 70.571755 11.054667 14.629455 16.636353 30.107661 16.636353 46.196297 0 19.588167-8.596216 38.712238-25.048603 56.080274 20.319849 21.440367 25.048604 41.797845 25.048603 56.080274 0 41.605517-37.947108 79.331031-106.85899 106.219291-63.936446 24.944078-148.581576 38.687152-238.352661 38.687152zM519.013254 95.415487c-189.835886 0-322.420808 41.739311-322.420809 101.503079 0 22.928817 21.319117 42.195044 39.20142 54.320057l17.18407 11.652555-15.039197 14.307515c-12.810703 12.191909-19.308037 24.467439-19.308037 36.487925 0 14.315877 9.010139 28.790633 26.783734 43.027071l16.289328 13.049022-16.285146 13.053203c-17.777777 14.24898-26.792097 28.727918-26.792097 43.031252 0 52.722899 128.040133 111.466495 311.767521 111.466495 85.707115 0 166.037414-12.927772 226.1942-36.404305 54.378591-21.222953 85.56914-48.583671 85.569141-75.06219 0-14.303334-9.010139-28.782271-26.787916-43.031252l-16.289327-13.057384 16.293508-13.049022c12.216995-9.77945 26.779554-25.186578 26.779554-43.027071 0-12.012125-6.497334-24.287654-19.312219-36.496288l-15.022472-14.307514 17.167345-11.644193c17.882303-12.129194 39.20142-31.399602 39.20142-54.320057 0-27.185114-34.267794-52.555658-96.490014-71.44141-63.882092-19.379115-152.198175-30.057488-248.684007-30.057488z"
        fill="#6E6E96" p-id="21224"></path>
    <path
        d="M674.041992 41.889828c163.934351 36.726245 227.40252 134.395312 227.40252 198.264861 0 79.970729-166.129396 144.806098-371.04629 144.806098-204.933618 0-371.058833-64.827007-371.058833-144.806098 0-63.869549 47.057592-161.530254 217.464191-198.256499 42.947631-9.261001 93.73889 25.412354 153.594642 25.412354 54.650358 0 102.339287-34.673355 143.64377-25.420716z"
        fill="#F0DCCA" p-id="21225"></path>
    <path
        d="M530.398222 401.684942c-101.14351 0-196.487919-15.469844-268.460321-43.553881C184.990062 328.10284 142.615234 286.20465 142.615234 240.154689c0-27.532141 11.121563-167.287544 230.663731-214.604361a90.569663 90.569663 0 0 1 19.032088-1.948364c20.754677 0 41.684957 6.179575 63.848644 12.71872 23.769206 7.015783 48.345352 14.269885 74.238525 14.269886 22.999895 0 45.460435-7.091042 67.180932-13.952127 21.235496-6.706386 41.29612-13.04066 61.607607-13.04066 6.434619 0 12.660186 0.664785 18.509459 1.97345 165.222111 37.014737 240.472448 137.184065 240.472447 214.583456 0 46.04578-42.379009 87.94397-119.322666 117.972191-71.976583 28.088219-167.31263 43.558062-268.447779 43.558062zM392.311053 57.050275c-4.331556 0-8.24919 0.393018-11.982857 1.195777-194.418305 41.902371-204.264651 158.883656-204.264651 181.908637 0 30.860248 35.731158 62.502349 98.032817 86.81509 68.192743 26.612312 159.213958 41.266853 256.30186 41.266853 97.07954 0 188.092393-14.654541 256.285137-41.271034 62.30584-24.312741 98.036998-55.954842 98.036998-86.810909 0-53.835056-57.079542-146.712652-214.332593-181.946267a50.63238 50.63238 0 0 0-11.201003-1.166509c-15.156266 0-32.829517 5.577506-51.535484 11.489494-23.016619 7.266645-49.097939 15.503292-77.257236 15.503292-30.726454 0-58.873208-8.307724-83.708578-15.637085-19.772133-5.832549-38.453014-11.347339-54.37441-11.347339zM524.803992 886.405316a16.611267 16.611267 0 0 1-7.847809-1.96927c-89.854705-47.847808-193.941667-69.476322-194.982746-69.689555a16.724155 16.724155 0 0 1 6.698024-32.770982c4.444444 0.911466 109.915329 22.832653 204.001246 72.938222a16.715793 16.715793 0 0 1 6.898714 22.61942 16.694888 16.694888 0 0 1-14.767429 8.872165z"
        fill="#6E6E96" p-id="21226"></path>
    <path d="M172.881774 778.304557m-12.03303 0a12.03303 12.03303 0 1 0 24.06606 0 12.03303 12.03303 0 1 0-24.06606 0Z"
        fill="#8F8379" p-id="21227"></path>
    <path
        d="M172.881774 792.428106c-7.789275 0-14.123549-6.338455-14.123549-14.123549s6.334274-14.123549 14.123549-14.123549 14.123549 6.338455 14.123549 14.123549-6.334274 14.123549-14.123549 14.123549z m0-24.066059c-5.481342 0-9.94251 4.456987-9.94251 9.94251s4.461168 9.94251 9.94251 9.94251 9.94251-4.456987 9.94251-9.94251-4.461168-9.94251-9.94251-9.94251z"
        fill="#6E6E96" p-id="21228"></path>
    <path
        d="M568.737063 426.242978a214.311688 126.798364 70.378 1 0 238.870006-85.161146 214.311688 126.798364 70.378 1 0-238.870006 85.161146Z"
        fill="#D6C5B5" p-id="21229"></path>
    <path
        d="M733.818304 606.731448c-69.764814 0-144.124589-71.909687-180.83411-174.880311-43.503709-122.027799-18.204243-238.787489 57.597991-265.817905a94.834322 94.834322 0 0 1 31.943136-5.456255c69.768995 0 144.12877 71.913868 180.83411 174.88031 20.215323 56.699067 26.102225 114.9493 16.573638 164.017972-10.139019 52.208632-36.479564 88.362074-74.17581 101.799933a94.792512 94.792512 0 0 1-31.938955 5.456256z m-91.292983-412.706161c-7.20393 0-14.169541 1.183234-20.704504 3.512073-56.201524 20.035538-73.29361 122.19504-37.332496 223.079326 31.537576 88.458238 94.336779 152.66227 149.329983 152.66227 7.20393 0 14.169541-1.179053 20.704504-3.512072 26.110587-9.311173 44.783107-36.533917 52.572382-76.667709 8.403888-43.273752 2.989443-95.26915-15.244067-146.411617-31.533395-88.454057-94.332598-152.66227-149.325802-152.662271z"
        fill="#6E6E96" p-id="21230"></path>
    <path d="M204.975428 710.111814m-12.03303 0a12.03303 12.03303 0 1 0 24.06606 0 12.03303 12.03303 0 1 0-24.06606 0Z"
        fill="#8F8379" p-id="21231"></path>
    <path
        d="M204.975428 724.235363a14.140273 14.140273 0 0 1-14.123549-14.123549c0-7.789275 6.334274-14.12773 14.123549-14.12773s14.123549 6.338455 14.123549 14.12773a14.136092 14.136092 0 0 1-14.123549 14.123549z m0-24.06606c-5.481342 0-9.94251 4.461168-9.94251 9.946692s4.461168 9.94251 9.94251 9.94251 9.94251-4.456987 9.94251-9.94251-4.461168-9.946691-9.94251-9.946692z"
        fill="#6E6E96" p-id="21232"></path>
    <path
        d="M870.902024 730.168257m-12.03303 0a12.03303 12.03303 0 1 0 24.066059 0 12.03303 12.03303 0 1 0-24.066059 0Z"
        fill="#8F8379" p-id="21233"></path>
    <path
        d="M870.902024 744.291806c-7.789275 0-14.12773-6.338455-14.127731-14.123549s6.338455-14.123549 14.127731-14.123549c7.785094 0 14.119368 6.338455 14.119368 14.123549s-6.330093 14.123549-14.119368 14.123549z m0-24.066059c-5.485523 0-9.946691 4.456987-9.946692 9.94251s4.461168 9.94251 9.946692 9.94251c5.481342 0 9.938329-4.456987 9.938329-9.94251s-4.456987-9.94251-9.938329-9.94251z"
        fill="#6E6E96" p-id="21234"></path>
    <path
        d="M882.930872 818.421624m-12.033029 0a12.03303 12.03303 0 1 0 24.066059 0 12.03303 12.03303 0 1 0-24.066059 0Z"
        fill="#8F8379" p-id="21235"></path>
    <path
        d="M882.930872 832.545173c-7.789275 0-14.12773-6.338455-14.12773-14.123549s6.338455-14.123549 14.12773-14.123549c7.785094 0 14.123549 6.338455 14.123549 14.123549s-6.334274 14.123549-14.123549 14.123549z m0-24.066059c-5.485523 0-9.946691 4.456987-9.946691 9.94251s4.461168 9.94251 9.946691 9.942511 9.94251-4.456987 9.942511-9.942511-4.456987-9.94251-9.942511-9.94251z"
        fill="#6E6E96" p-id="21236"></path>
    <path
        d="M818.747745 902.665375m-12.033029 0a12.03303 12.03303 0 1 0 24.066059 0 12.03303 12.03303 0 1 0-24.066059 0Z"
        fill="#8F8379" p-id="21237"></path>
    <path
        d="M818.747745 916.788925c-7.785094 0-14.123549-6.338455-14.123549-14.12355s6.338455-14.123549 14.123549-14.123549c7.789275 0 14.12773 6.338455 14.127731 14.123549s-6.338455 14.123549-14.127731 14.12355z m0-24.06606c-5.485523 0-9.94251 4.456987-9.94251 9.94251a9.950872 9.950872 0 0 0 19.889202 0 9.955053 9.955053 0 0 0-9.946692-9.94251z"
        fill="#6E6E96" p-id="21238"></path>
    <path d="M798.691302 810.398211m-12.03303 0a12.03303 12.03303 0 1 0 24.06606 0 12.03303 12.03303 0 1 0-24.06606 0Z"
        fill="#8F8379" p-id="21239"></path>
    <path
        d="M798.691302 824.52176c-7.785094 0-14.123549-6.338455-14.123549-14.123549s6.338455-14.123549 14.123549-14.123549 14.123549 6.338455 14.123549 14.123549-6.338455 14.123549-14.123549 14.123549z m0-24.066059c-5.485523 0-9.94251 4.456987-9.94251 9.94251s4.456987 9.94251 9.94251 9.94251 9.94251-4.456987 9.94251-9.94251-4.461168-9.94251-9.94251-9.94251z"
        fill="#6E6E96" p-id="21240"></path>
    <path
        d="M366.622751 421.31492c-35.363226 99.203508-103.88209 165.410258-153.034383 147.891705s-27.540503-112.741712 7.822724-211.94522c35.363226-99.199327 71.098565-164.812369 120.250857-147.293817 49.152292 17.526915 60.328209 112.148004 24.960802 211.347332z"
        fill="#D6C5B5" p-id="21241"></path>
    <path
        d="M230.149463 588.740438a65.893172 65.893172 0 0 1-22.180411-3.779659c-30.601023-10.90833-43.662588-42.090518-38.812584-92.68945 3.374098-35.187623 15.310964-81.183231 36.500469-140.625059 18.246053-51.184277 34.238527-86.660392 50.335527-111.64628 21.49054-33.36469 44.410994-49.582939 70.065848-49.582939 7.00324 0 14.140273 1.279398 21.214591 3.800564 58.739414 20.942823 74.154904 123.165041 35.099821 232.716621-33.958397 95.26915-96.55691 161.806202-152.223261 161.806202z m95.91303-364.875077c-35.262881 0-67.624122 79.339393-88.897247 139.01536-20.248771 56.807774-31.604472 100.17769-34.710984 132.584922-3.198495 33.381414 2.437546 52.890141 16.749241 57.995189 3.424271 1.220863 7.107766 1.835476 10.94596 1.835476 44.415175 0 96.255876-70.973134 120.719134-139.592343 16.255879-45.598409 22.778299-91.313888 18.358941-128.725823-3.871642-32.787706-15.967387-55.114454-33.184905-61.252218-3.507892-1.254312-6.773283-1.860562-9.98014-1.860563z"
        fill="#6E6E96" p-id="21242"></path>
    <path
        d="M838.298283 320.982531s-180.014626 373.074094-59.667605 553.598807c0 0 144.417262 170.678367 256.736689-110.132744 0 0-184.530148 9.842165-188.548127-467.536303-2.550434-304.868807-8.520957 24.07024-8.520957 24.07024z"
        fill="#FF9494" p-id="21243"></path>
    <path
        d="M879.899619 942.682098c-64.801921 0-112.056021-54.959755-114.033653-57.296956a15.620361 15.620361 0 0 1-1.145604-1.526079c-52.664365-78.996547-58.576354-199.431371-17.572906-357.959638 27.214382-105.224204 66.072956-190.839336 74.497749-208.826165 0.20069-10.46514 0.823665-42.069613 1.655692-73.335421 0.597889-22.385282 1.179053-40.242499 1.735131-53.078288 0.338664-7.860353 0.664785-13.734713 0.986725-17.957562 0.464095-6.029058 1.697502-22.038256 17.648165-22.038255 16.172258 0 17.230061 16.811957 17.577087 22.33929 0.313578 5.008885 0.597889 12.367513 0.865475 22.502351 0.572802 21.590884 1.053622 55.657989 1.438277 101.268941 3.750392 445.840893 164.151765 450.971028 170.979402 450.971028a16.715793 16.715793 0 0 1 16.372948 22.916274c-45.665306 114.146541-103.200581 172.02048-171.004488 172.02048z m-87.956513-78.285771c4.891815 5.426988 42.01944 44.841641 87.956513 44.841642 59.617432 0 103.530883-67.515415 131.740352-131.468585-50.231-13.584195-160.840382-80.137971-179.044625-401.664037-42.562975 104.580324-128.546038 354.731876-40.65224 488.29098z"
        fill="#6E6E96" p-id="21244"></path>
    <path
        d="M194.865676 282.165767s154.819686 348.502129-30.488135 579.445988c0 0-66.04787 78.607711-132.434404-12.668547-2.717675-3.737849-19.048813-37.223789-14.386955-39.987456 99.554715-58.994458 188.130023-282.889086 170.657461-480.351187l6.652033-46.438798z"
        fill="#FF9494" p-id="21245"></path>
    <path
        d="M101.70795 909.798228c-30.642833 0-58.664156-17.163164-83.286293-51.021217-0.225776-0.305216-21.340022-35.668442-17.974286-51.974494 1.082889-5.251385 4.130866-9.599665 8.587854-12.2379 108.966234-64.571963 176.837037-302.715572 162.525341-464.492508l-0.171423-1.927458 15.168809-105.88899 23.597783 53.120099c1.622243 3.650047 39.862024 90.661646 55.54092 207.688922 20.959548 156.408481-9.566217 290.929224-88.265911 389.012214-1.534441 1.818752-32.206542 37.721332-75.722794 37.721332zM45.656944 839.364448c17.919932 24.542698 36.776417 36.98965 56.051006 36.98965 27.665934 0 49.649836-25.245112 49.86725-25.500156 50.444233-62.874462 105.700842-177.087899 81.078705-362.483522-6.108498-45.999789-16.038465-87.596944-25.667397-120.748401 3.135779 179.567255-72.88805 381.808284-171.502032 449.695811 2.905822 7.655482 8.019232 18.547088 10.172468 22.046618z"
        fill="#6E6E96" p-id="21246"></path>
    <path
        d="M928.612902 471.069281c-116.554819 39.105256-155.831498-56.761783-258.852294-146.202565-124.176853-107.82481-120.284306-184.969157-43.800562-244.252107 76.492105-59.295493 206.233921-19.939374 289.804524 87.889617 83.591509 107.820629 141.490535 259.420916 12.848332 302.565055z"
        fill="#F0DCCA" p-id="21247"></path>
    <path
        d="M878.620221 496.778489c-63.493255 0-104.814462-43.315562-152.666451-93.475485-20.482909-21.469634-41.664052-43.67095-67.155846-65.80537-71.152919-61.77903-105.044419-116.726242-103.614504-167.977415 1.041079-37.437022 21.406919-71.796799 60.537261-102.121873 26.256924-20.357478 59.28713-31.115291 95.50747-31.115291 76.007105 0 159.448096 46.739833 217.761045 121.981807 27.364899 35.29633 114.447576 157.73387 86.137762 251.288795-11.209365 37.031461-38.524092 63.062608-81.191593 77.374305-19.76377 6.626947-37.859306 9.850527-55.315144 9.850527z m-167.396251-427.051305c-29.146022 0-54.382772 8.107034-75.016198 24.103689-31.265808 24.22912-46.827635 49.294448-47.592765 76.617536-1.116337 40.04599 29.877703 87.751643 92.108285 141.787389 26.687571 23.167136 49.394793 46.973971 69.430331 67.975329 46.033237 48.253369 79.28922 83.114871 128.466598 83.114871 13.780704 0 28.393435-2.65496 44.6744-8.115397 32.252533-10.812166 51.815614-28.920246 59.813941-55.348592 12.334065-40.752585-2.349744-120.234133-80.556075-221.110056-52.12083-67.247828-125.431165-109.024768-191.328517-109.024769z"
        fill="#6E6E96" p-id="21248"></path>
    <path
        d="M134.842683 398.963086c50.728544 0 117.729691-114.715162 147.502868-142.100966 121.02435-111.353607 231.621188-122.989438 155.145808-182.272387-76.483743-59.28713-222.849369-30.964773-289.808706 87.889616-83.570604 148.3558-68.811537 236.483737-12.83997 236.483737z"
        fill="#F0DCCA" p-id="21249"></path>
    <path
        d="M134.842683 415.687241c-21.871014 0-39.928921-10.293718-50.853975-28.982961-12.526392-21.432005-32.812793-86.982332 49.123025-232.436491C177.029365 76.316502 257.163155 27.89171 342.238932 27.89171c40.760947 0 77.240511 11.577296 105.500153 33.481759 14.044109 10.887425 32.607922 27.900072 31.671369 49.842164-1.149786 27.042959-28.882616 44.987978-70.860246 72.156367-32.490853 21.026444-72.92986 47.199747-114.882404 85.799098-7.672206 7.057594-19.742865 22.782481-32.5243 39.431377-36.6259 47.709834-82.211766 107.084766-126.300821 107.084766zM342.238932 61.34002c-71.913868 0-142.560881 42.922545-179.985359 109.35089-60.052261 106.608128-64.132954 173.906129-49.38643 199.142879 4.95035 8.466604 11.932685 12.409323 21.97554 12.409323 27.599037 0 72.775162-58.848121 99.767948-94.006477 14.282429-18.601442 26.612312-34.664993 36.408486-43.679312 44.038882-40.518447 85.799098-67.548863 119.356115-89.265179 27.139123-17.564544 55.198074-35.722796 55.616179-45.493884 0.071078-1.693321-1.066165-8.278457-18.747778-21.983902-22.021531-17.075363-52.208632-26.474338-85.004701-26.474338z"
        fill="#6E6E96" p-id="21250"></path>
    <path
        d="M705.822068 74.49775c0-8.483328-0.706596-16.811957-1.990175-24.969164-9.545312-2.772029 13.212083-28.297271 2.880736-30.609385-75.894217 6.108498-121.672411 48.391343-176.322769 48.391343-59.851571 0-125.518966-40.965818-202.864003-31.704817-19.859934 4.277203 11.292986 15.699801-5.330825 21.49472a160.606244 160.606244 0 0 0-0.953277 17.397303c0 96.243333 86.087589 166.246465 192.285976 166.246465 106.206748-0.004181 192.294337-70.007314 192.294337-166.246465z"
        fill="#C2B2A4" p-id="21251"></path>
    <path
        d="M513.531912 257.46837c-55.90467 0-108.033862-18.116441-146.787911-51.004492-40.12543-34.054561-62.22222-80.919825-62.22222-131.961947 0-6.338455 0.351207-12.802341 1.049441-19.207693l0.627156-5.778195c-2.057071-4.210306-3.38246-9.695829-1.128881-15.93812 2.65496-7.362809 9.026863-12.179366 18.931744-14.311696l1.534441-0.259225a212.87341 212.87341 0 0 1 25.19494-1.480087c37.896936 0 73.255981 9.854708 104.454893 18.547088 26.80464 7.467335 52.116649 14.520748 75.200164 14.520748 23.296748 0 45.686211-9.148113 71.604471-19.738685 28.974599-11.836521 61.808297-25.253474 103.376185-28.598305l2.525347-0.20069 2.475175 0.551897c6.03742 1.354657 11.025399 5.201212 13.68454 10.557123 4.916902 9.904881 0.301035 20.00209-3.403365 28.117486-0.267586 0.589526-0.576983 1.258493-0.8822 1.948364l0.581165 3.708582c1.455002 9.252639 2.190864 18.526183 2.190864 27.565589 0 51.042122-22.09679 97.907386-62.22222 131.961947-38.745687 32.88387-90.87906 50.99613-146.783729 51.000311zM338.195868 66.541233a141.394371 141.394371 0 0 0-0.225776 7.956517c0 85.243019 75.476113 149.52231 175.56182 149.52231 100.089888-0.004181 175.566001-64.283472 175.566001-149.52231 0-5.560782-0.347026-11.251175-1.036898-16.979199a19.517089 19.517089 0 0 1-1.480088-2.675865c-2.554615-5.569144-2.228494-11.046305-0.773492-16.272603-26.411622 4.958712-49.081215 14.219713-71.157099 23.238214-27.97115 11.426779-54.391134 22.222221-84.256295 22.222221-27.653391 0-55.110273-7.651301-84.176854-15.749973-30.559213-8.516776-62.155323-17.322044-95.478203-17.322044-2.25358 0-4.498798 0.04181-6.735653 0.125431a19.872477 19.872477 0 0 1-0.786036 6.936344 20.12334 20.12334 0 0 1-5.021427 8.520957z"
        fill="#6E6E96" p-id="21252"></path>
    <path
        d="M674.041992 41.889828s-178.50109 159.799304-104.433988 303.008245c36.847495 71.223996 140.215318 44.068149 140.215318-48.073584 0-92.133371 84.11832-204.306462 124.181034-204.306462 40.071076 0-83.257026-127.329356-159.962364-50.628199z"
        fill="#F0DCCA" p-id="21253"></path>
    <path
        d="M960.865436 252.802331c-171.878325 0-201.187407-108.301448-202.345555-112.913134l32.428137-8.186474-16.214068 4.093237 16.18062-4.222849c0.96582 3.58315 25.353819 87.776729 169.950866 87.776728v33.452492z"
        fill="#6E6E96" p-id="21254"></path>
    <path
        d="M721.668205 112.528479a19.985366 19.985366 0 1 1-39.970731 0 19.985366 19.985366 0 0 1 19.989547-19.972823 19.981185 19.981185 0 0 1 19.981184 19.972823z"
        fill="#6E6E96" opacity=".43" p-id="21255"></path>
    <path
        d="M701.687021 134.612726a22.109333 22.109333 0 0 1-22.080066-22.084247 22.09679 22.09679 0 0 1 22.080066-22.063342 22.092609 22.092609 0 0 1 22.071703 22.063342 22.105152 22.105152 0 0 1-22.071703 22.084247z m0-39.970731a17.91157 17.91157 0 0 0-17.899028 17.882303 17.924113 17.924113 0 0 0 17.899028 17.903208 17.919932 17.919932 0 0 0 17.890665-17.903208 17.907389 17.907389 0 0 0-17.890665-17.882303z"
        fill="#6E6E96" opacity=".43" p-id="21256"></path>
    <path
        d="M560.271745 246.785816s67.005328-165.130128 174.269879-187.093125c107.256189-21.962997-25.27438 44.323193-25.27438 185.391442 0 0 47.847808-141.962992 131.999576-162.107237 0 0-47.864532-94.085917-142.130233-58.680879-94.269882 35.400856-138.864842 222.4898-138.864842 222.489799z"
        fill="#FFFFFF" opacity=".49" p-id="21257"></path>
    <path
        d="M641.133035 238.118523m-25.813733 0a25.813734 25.813734 0 1 0 51.627467 0 25.813734 25.813734 0 1 0-51.627467 0Z"
        fill="#6E6E96" opacity=".43" p-id="21258"></path>
    <path
        d="M388.819886 41.89819s-99.621612-29.50141-151.696451 22.569248c-52.07902 52.087382-32.474128 282.324646 54.85523 300.767208 87.333539 18.4342 118.340123-50.373156 87.333539-100.453639-31.019127-50.088845-91.167551-205.397713 9.507682-222.882817z"
        fill="#F0DCCA" p-id="21259"></path>
    <path
        d="M293.784874 117.073268c0 10.699278-8.182293 19.35821-18.27114 19.35821-10.097209 0-18.279502-8.667293-18.279502-19.35821 0-10.678373 8.186474-19.341486 18.279502-19.341486 10.088847 0 18.27114 8.663112 18.27114 19.341486z"
        fill="#6E6E96" opacity=".43" p-id="21260"></path>
    <path
        d="M287.534221 231.090196m-25.809553 0a25.809553 25.809553 0 1 0 51.619105 0 25.809553 25.809553 0 1 0-51.619105 0Z"
        fill="#6E6E96" opacity=".43" p-id="21261"></path>
    <path
        d="M938.530326 891.384933c-5.569144 0-11.10902-0.702415-16.632172-2.107244-25.341276-6.451343-47.822722-27.427615-66.825543-62.351832-13.270617-24.387999-19.993728-46.948885-20.278039-47.893799a16.728336 16.728336 0 0 1 32.07693-9.482596c6.371903 21.440367 30.166195 78.917108 63.30929 87.320995 15.645447 3.963625 33.515207-3.959444 53.120098-23.564334a16.724155 16.724155 0 1 1 23.647956 23.647955c-22.891188 22.89955-45.836729 34.430855-68.41852 34.430855z"
        fill="#6E6E96" p-id="21262"></path>
    <path
        d="M132.421861 191.040026s-55.749972 189.539033 23.689766 135.185528-18.965192-125.723837 66.821363-239.510809c0 0-41.450819 173.805784 13.797428 226.164933 0 0-102.560882 120.367927-134.42876 71.023306-31.867878-49.34462 30.120204-192.862959 30.120203-192.862958z"
        fill="#6E6E96" opacity=".15" p-id="21263"></path>
    <path
        d="M779.08223 219.609064s73.168179 81.530257 156.788956 60.625063c0 0 56.444024 104.52597 0 131.702722s-107.498689 40.037628-226.478511-105.153126l-13.433678 42.132328s130.143195 155.11654 220.566522 125.790734c90.423327-29.321625 98.743594-123.587326 71.537574-181.101696s-32.110378-66.001879-32.110378-66.001879-30.973136 11.209365-110.195459-15.114455c-79.218142-26.32382-67.310544-66.695931-67.310544-66.695931l-32.825336 40.37211 33.460854 33.44413z"
        fill="#6E6E96" opacity=".15" p-id="21264"></path>
    <path
        d="M752.862936 356.053085s-9.319536-65.366361 26.219294-136.444021l-33.44831-33.448311-36.241245 120.62297 43.470261 49.269362z"
        fill="#6E6E96" opacity=".15" p-id="21265"></path>
    <path
        d="M234.159079 258.651604s-36.960383-157.533181 52.066476-171.635824c76.763873-12.158461-39.527541 44.089054 92.869235 176.49001 0 0-97.56036-172.814877-11.150831-222.987343 0.004181 0.004181-203.461892-68.247097-133.78488 218.133157z"
        fill="#FFFFFF" opacity=".49" p-id="21266"></path>
    <path
        d="M631.964017 401.484252c-0.004181 0-0.004181 0 0 0-32.670637 0-61.745581-18.492735-77.767322-49.46587-33.118008-64.028428-24.467439-140.662689 25.019337-221.611781 34.966028-57.196611 78.0809-96.983376 82.75112-101.218769 19.496184-19.349848 42.935088-29.162746 69.664469-29.162746 61.402736 0 126.342631 55.829411 126.342631 85.853451 0 10.979408-7.676387 22.799205-24.530155 22.799205-26.16076 0-107.452698 99.69269-107.452698 187.582307 0 38.862756-15.708163 63.330195-28.882616 77.014735-17.263509 17.928294-41.007629 28.209469-65.144766 28.209468z m99.671785-368.010855c-17.932475 0-33.08456 6.4388-46.330092 19.680149l-0.668966 0.631337c-1.676597 1.509355-167.935605 152.925676-100.729587 282.864001 10.318804 19.943555 27.833175 31.382877 48.052679 31.382877 15.097731 0 30.061669-6.543326 41.05362-17.957562 12.777255-13.266436 19.529632-31.87624 19.529633-53.81415 0-89.215006 73.072015-200.117061 126.514053-218.421649-13.789066-16.857949-50.26863-44.365003-87.42134-44.365003zM327.333529 384.454881h-0.012543c-9.82126 0-20.24459-1.153967-30.994041-3.420089-35.78133-7.555137-64.835369-43.18595-81.806205-100.332389-28.765547-96.866307-13.617643-196.416842 18.580536-228.619202 23.752482-23.752482 57.819586-35.798054 101.248036-35.798055 36.170167 0 65.776103 8.646388 67.022052 9.01432l-1.885648 32.511758c-18.099717 3.144141-29.526496 11.292986-35.973658 25.642311-20.152607 44.862547 15.29424 135.578546 37.821677 171.957764 17.26769 27.895891 18.91502 61.528167 4.289746 87.78091-14.612731 26.223475-43.152502 41.262672-78.289952 41.262672z m7.011602-334.721424c-34.238527 0-60.344933 8.746733-77.595899 25.997699-26.541234 26.545415-31.579386 123.353188-10.168287 195.446841 13.124281 44.185218 33.774432 72.298523 56.653076 77.131804 8.479147 1.789485 16.586181 2.69677 24.091146 2.700951h0.008362c22.987351 0 40.413921-8.558586 49.068672-24.095327 8.721647-15.65799 7.379534-36.308141-3.507892-53.89359-24.810284-40.062714-67.210199-142.464717-39.895472-203.269564a76.245424 76.245424 0 0 1 12.68109-19.692693c-3.679314-0.209052-7.467335-0.326121-11.334796-0.326121z"
        fill="#6E6E96" p-id="21267"></path>
    <path
        d="M677.654409 245.084133c-12.23372 78.691332-101.135148 116.487922-117.370121 1.701683 2.77621 14.558377-6.476429 79.527539 0.970001 93.931218 36.843314 71.223996 140.215318 44.068149 140.215318-48.073584 0-92.133371 84.11832-204.306462 124.181033-204.306462 12.145918 0 9.25682-11.706909-2.78039-25.872268-43.959442 6.932162-132.033025 97.748507-145.215841 182.619413z"
        fill="#6E6E96" opacity=".15" p-id="21268"></path>
    <path
        d="M385.69665 281.714214c-11.844883 27.022054-43.415907 45.36009-93.717985 34.744433-49.336258-10.414968-77.052364-88.428971-82.441724-163.733661-6.710567 86.756555 21.222953 203.767108 82.441724 216.690699 80.112885 16.908121 112.787703-39.581894 93.717985-87.701471z"
        fill="#6E6E96" opacity=".15" p-id="21269"></path>
    <path
        d="M226.95933 376.715778s57.577086 84.5197 139.663421 44.599142c0 0 150.851881 28.230374 211.272072 14.115187 0 0 89.26936 22.155325 116.170164-18.613985 0 0 127.538408 131.08811 178.053719 131.08811l-13.596738-64.191489s-111.516667-39.025816-164.456981-136.581995c0 0-43.206855 71.07766-103.129504 11.15083 0 0-96.849583 41.822931-197.90111 0 0 0-111.495762 36.237063-147.728645-47.383713 0-0.004181-36.692797 22.928817-18.346398 65.817913z"
        fill="#6E6E96" opacity=".15" p-id="21270"></path>
    <path
        d="M750.128536 588.364144s-107.22274 7.835267-172.22117-152.934037l-51.07557 3.90509s22.439635 70.550849 73.970939 126.635304l-0.004181-0.004181-247.304265-22.188773-0.426466 0.468276c22.029894-27.862443 44.766383-65.061145 64.831188-114.698438l-51.27626-8.236646-111.265805 145.249288-1.680778 56.703248s31.240722-8.939061 70.525763-46.936341l-0.104526 0.112888s113.494299 48.479145 316.044724 24.237482c28.230374 19.655063 62.226401 32.984215 102.556701 32.984215l7.429706-45.297375z"
        fill="#6E6E96" opacity=".15" p-id="21271"></path>
    <path
        d="M363.779644 973.684501s78.728961-87.199746 149.806621-57.932474c71.07766 29.267272 132.116646 56.356222 132.116646 56.356222l30.805894-13.910316s-111.876237-95.494927-189.660283-95.494927c-77.784046 0-152.185632 81.868921-152.185632 81.868922l29.116754 29.112573z"
        fill="#6E6E96" opacity=".25" p-id="21272"></path>
    <path
        d="M153.331237 930.105533s95.402944-63.192221 124.030516-200.413914c0 0 217.414019 94.073373 418.103882 27.176752 0 0 11.456046 212.739617 178.200055 212.739617l44.820736-51.660916s-181.072429 40.723318-181.072429-221.147686c0 0-299.358198 80.167238-488.408049-33.360509 0 0-50.398242 206.509869-130.180825 227.3189l34.506114 39.347756z"
        fill="#6E6E96" opacity=".15" p-id="21273"></path>
    <path
        d="M816.226579 522.930887s-45.76147 357.7255 154.359772 341.820829c200.117061-15.900491 3.967806 8.780182 3.967806 8.780181s-128.504228 163.495342-230.316704-85.995606c0 0-0.137974-207.563491 30.019858-296.648886l41.969268 32.043482z"
        fill="#6E6E96" opacity=".15" p-id="21274"></path>
    <path
        d="M214.64199 338.76867s50.891604 385.370529-86.409529 468.276348c0 0-61.933728 50.653285-110.68046 1.906553 0 0 42.993622 116.634259 130.189187 70.563393 87.195565-46.075048 133.797423-426.465959 66.900802-540.746294z"
        fill="#6E6E96" opacity=".15" p-id="21275"></path>
    <path
        d="M399.673863 209.725088s-56.811955-105.098773 15.65799-105.098773c70.897875 0 180.307299 0.714958 118.101803 126.961425a345.997686 345.997686 0 0 1-4.398452 8.600397c-71.487402 134.813416 80.121247-177.93665 160.844563-211.853237 0 0-52.52221-11.970314-126.852718 34.351415-74.330508 46.321729-136.548547-36.10327-178.358935-22.167868s-78.695513 118.21051 15.005749 169.206641z"
        fill="#6E6E96" opacity=".15" p-id="21276"></path>
    <path
        d="M390.952216 307.369069s67.059682 37.018918 167.337716 10.78708l-6.367722 70.784987-164.4528-11.150831 3.482806-70.421236z"
        fill="#6E6E96" opacity=".15" p-id="21277"></path>
</svg>