<svg t="1721615100977" class="icon" viewBox="0 0 1024 1024" version="1.1" xmlns="http://www.w3.org/2000/svg"
    p-id="23291" width="200" height="200">
    <path
        d="M68.700685 384.883881c29.323862 25.247011 71.279417 49.470715 125.866662 72.65474l0 18.419512c-28.652574 41.61991-79.146595 75.389014-151.449317 101.307314l-4.093225 0 0-4.093225c14.997576-78.44256 22.512736-137.458675 22.512736-177.031972l0-5.116531L68.700685 384.883881zM320.43401 191.479009c-17.748223 39.573297-26.605961 147.70811-26.605961 324.388065l0 13.302981c0 101.659331 13.302981 202.278983 39.908942 301.875329l0 4.093225c-30.027897 23.88806-73.678046 35.815717-130.983193 35.815717-73.678046-4.764514-110.517069-10.904351-110.517069-18.419512l0-4.093225c69.584821-17.73185 108.806101-50.142004 117.680213-97.214089 7.498788-37.510312 11.256368-136.771013 11.256368-297.782104 0-133.029806-15.013949-212.847689-45.025473-239.45365l0-5.116531 144.286174-21.48943L320.43401 191.479009zM379.785769 330.648652c33.417087 55.946196 51.16531 98.589412 53.211922 127.913275l-4.093225 5.116531c-25.934672 0.687662-47.424102 1.023306-64.46829 1.023306-34.121122 0-51.16531-2.046612-51.16531-6.139837 34.104749-37.510312 54.906517-80.153528 62.421678-127.913275L379.785769 330.648652zM468.813409 124.964106c23.871687 20.466124 88.675622 30.699186 194.428178 30.699186 57.976436 0 116.992551-10.233062 177.031972-30.699186 3.405563 4.093225 5.116531 9.897418 5.116531 17.396205 0 19.794835-11.94403 52.540633-35.815717 98.237395-36.167734-7.498788-72.65474-11.256368-109.493763-11.256368l0 4.093225c15.685237 21.841447 23.536043 41.955554 23.536043 60.375066 0 17.748223-6.139837 33.769105-18.419512 48.095391 2.717901 0 30.699186-1.358951 83.911108-4.093225 21.825075 0 32.745798 10.233062 32.745798 30.699186 0 27.981285-19.794835 68.225871-59.35176 120.750131l0 4.093225c54.570873-2.046612 125.866662-26.253944 213.870995-72.65474l5.116531 4.093225c0 30.699186-17.396205 82.887802-52.188616 156.565848-143.262868-8.857738-233.665831-13.302981-271.176143-13.302981-77.771271 0-151.113673 8.874111-220.010833 26.605961-27.981285-40.244586-41.955554-70.943772-41.955554-92.097558l9.209756-12.279674c38.885636 6.827499 81.176834 10.920724 126.889969 12.279674l0-34.792411c0-17.73185 20.114107-48.095391 60.375066-91.074252-12.279674 0-43.330878 3.069919-93.120864 9.209756-12.967336-12.279674-19.442818-35.4637-19.442818-69.584821 0-20.466124 7.834432-30.699186 23.536043-30.699186 30.011524 25.247011 67.538209 41.284265 112.563682 48.095391 21.825075-34.104749 32.745798-66.162886 32.745798-96.190783l0-8.18645c-72.319096 1.375324-122.125455 7.163143-149.402705 17.396205-26.605961-50.477648-39.908942-89.698928-39.908942-117.680213l4.093225-4.093225L468.813409 124.964106zM838.226946 625.360837l6.139837 4.093225c-1.375324 8.18645-2.046612 21.153786-2.046612 38.885636 0 44.354184 5.78782 116.321262 17.396205 215.917608l-15.349593 9.209756c-40.932248-2.734274-81.864496-4.093225-122.796744-4.093225-83.239819 0-169.19754 4.093225-257.873162 12.279674l-4.093225-13.302981c0-178.726567 6.475482-268.106224 19.442818-268.106224 69.584821 11.608386 134.053112 17.396205 193.404871 17.396205C721.57004 637.640512 776.828574 633.547287 838.226946 625.360837zM634.589013 704.155415c-32.745798 0-60.727083-1.358951-83.911108-4.093225 6.811126 8.18645 10.233062 38.885636 10.233062 92.097558l-5.116531 30.699186c33.417087-3.405563 102.666264-5.116531 207.731158-5.116531-4.093225-17.044188-6.139837-35.815717-6.139837-56.281841s2.046612-42.626843 6.139837-66.514903C710.313671 701.085496 667.334811 704.155415 634.589013 704.155415zM574.213947 502.564094c49.118698 0 100.955296-3.069919 155.542542-9.209756l-10.233062-42.97886 9.209756-38.885636 0-12.279674c0-7.498788-18.419512-13.302981-55.258535-17.396205C625.714901 427.527097 592.633459 467.771683 574.213947 502.564094z"
        p-id="23292"></path>
</svg>