<svg t="1721371365689" class="icon" viewBox="200 150 850 700" version="1.1" xmlns="http://www.w3.org/2000/svg"
    p-id="7420" width="256" height="256">
    <path
        d="M748.810661 531.615769m-288.835092 0a288.835092 288.835092 0 1 0 577.670183 0 288.835092 288.835092 0 1 0-577.670183 0Z"
        fill="#F2BC32" p-id="7421"></path>
    <path
        d="M748.810661 831.253748a299.637979 299.637979 0 0 1-276.326486-183.649084 299.637979 299.637979 0 0 1 389.472516-392.883953 299.637979 299.637979 0 0 1 164.317601 390.041088 299.069406 299.069406 0 0 1-161.474736 163.180455 305.892282 305.892282 0 0 1-115.988895 23.311494z m0-578.238756a278.600777 278.600777 0 1 0 257.563576 384.355358A278.600777 278.600777 0 0 0 852.859522 274.052193a272.915047 272.915047 0 0 0-103.480288-21.037201z"
        fill="#231815" p-id="7422"></path>
    <path
        d="M748.810661 796.002221a266.092171 266.092171 0 0 1-100.068851-19.900056 261.543587 261.543587 0 0 1-144.417546-142.711826 264.386452 264.386452 0 1 1 244.486397 162.611882z m0-511.715714a243.917823 243.917823 0 0 0-92.677402 470.209884A245.054969 245.054969 0 0 0 975.102721 625.430316a244.486396 244.486396 0 0 0-133.614659-318.400888 239.369239 239.369239 0 0 0-92.108828-19.331482z"
        fill="#231815" p-id="7423"></path>
    <path d="M808.965686 408.178567l79.202221 188.766241-188.766241 79.145364-79.202221-188.709384z" fill="#FFFFFF"
        p-id="7424"></path>
    <path
        d="M693.659078 689.679067l-86.991671-208.097723 207.52915-86.991672 87.560245 207.529151z m-56.857301-196.726263l71.071627 170.571904 170.571904-71.071626-71.071627-170.571905z"
        fill="#231815" p-id="7425"></path>
    <path
        d="M388.335369 416.76402m-221.743476 0a221.743476 221.743476 0 1 0 443.486952 0 221.743476 221.743476 0 1 0-443.486952 0Z"
        fill="#F2BC32" p-id="7426"></path>
    <path
        d="M388.335369 649.310383a232.546363 232.546363 0 1 1 232.546363-232.546363 232.546363 232.546363 0 0 1-232.546363 232.546363z m0-443.486952a211.509162 211.509162 0 1 0 211.509162 210.940589 211.509162 211.509162 0 0 0-211.509162-210.940589z"
        fill="#231815" p-id="7427"></path>
    <path
        d="M388.335369 625.430316a206.392004 206.392004 0 1 1 206.392005-206.392004A206.392004 206.392004 0 0 1 388.335369 625.430316z m0-391.178234a185.354803 185.354803 0 1 0 185.354803 184.78623 185.354803 185.354803 0 0 0-185.354803-187.060522z"
        fill="#231815" p-id="7428"></path>
    <path d="M395.385675 311.805441l110.928595 110.928596-110.928595 110.985452-110.985453-110.985452z" fill="#FFFFFF"
        p-id="7429"></path>
    <path
        d="M398.00111 548.672959L269.503609 423.018323 398.00111 297.363687l122.811772 125.654636zM299.069406 423.018323L398.00111 519.107163l96.657413-96.08884L398.00111 326.360911z"
        fill="#231815" p-id="7430"></path>
    <path
        d="M487.267074 653.858967m-221.743476 0a221.743476 221.743476 0 1 0 443.486952 0 221.743476 221.743476 0 1 0-443.486952 0Z"
        fill="#F2BC32" p-id="7431"></path>
    <path
        d="M487.267074 886.40533A227.429206 227.429206 0 0 1 398.00111 868.779567a232.546363 232.546363 0 1 1 302.480844-126.791782 231.97779 231.97779 0 0 1-213.21488 144.417545z m0-444.055524a217.194892 217.194892 0 0 0-81.874514 16.488617 212.077735 212.077735 0 0 0-113.714603 276.895058A211.509162 211.509162 0 1 0 568.573015 458.26985a218.900611 218.900611 0 0 0-81.305941-15.920044z"
        fill="#231815" p-id="7432"></path>
    <path
        d="M487.267074 859.682399a198.431982 198.431982 0 0 1-77.894503-15.351472 205.823431 205.823431 0 1 1 268.366463-113.714603 205.254858 205.254858 0 0 1-190.47196 129.066075z m0-390.609662a184.78623 184.78623 0 1 0 69.365908 13.645753 185.354803 185.354803 0 0 0-68.797335-13.645753z"
        fill="#231815" p-id="7433"></path>
    <path d="M533.321488 559.19156l60.723598 144.701833-144.701832 60.723598-60.723598-144.701833z" fill="#FFFFFF"
        p-id="7434"></path>
    <path
        d="M444.055525 778.376458L374.689617 614.058856l164.317601-68.797335 68.797335 164.317602zM402.549695 625.430316L454.858412 751.084953l125.654636-52.877291-52.87729-125.654636z"
        fill="#231815" p-id="7435"></path>
</svg>